<svg id="Raggruppa_253" data-name="Raggruppa 253" xmlns="http://www.w3.org/2000/svg" xmlns:xlink="http://www.w3.org/1999/xlink" width="192.625" height="18.578" viewBox="0 0 192.625 18.578">
  <defs>
    <linearGradient id="linear-gradient" x1="0.5" x2="0.5" y2="1" gradientUnits="objectBoundingBox">
      <stop offset="0" stop-color="#71d7ff"/>
      <stop offset="0.001" stop-color="#71d7ff"/>
      <stop offset="0.348" stop-color="#ffd66f"/>
      <stop offset="0.74" stop-color="#ff9770"/>
      <stop offset="1" stop-color="#fe71a6"/>
    </linearGradient>
    <clipPath id="clip-path">
      <path id="Tracciato_315" data-name="Tracciato 315" d="M172.018,154.146v14.766l-12.725-14.737-.018-.021h-.514v15.481h.505V154.914l12.692,14.7.018.021h.546V154.146Zm37.234.514h6.33c3,0,4.726,1.329,4.726,3.647,0,1.353-.614,3.623-4.726,3.623h-6.33Zm-.505-.514v15.487h.505V162.38l10.714,7.253h.9l-10.691-7.212h5.41c3.341,0,5.257-1.5,5.257-4.114s-1.968-4.161-5.266-4.161Zm59.764,0v6.763H256.333v-6.763h-.505v15.487h.505v-8.206h12.176v8.206h.505V154.146Zm24.46,0-6.813,7.623-6.819-7.6-.018-.02h-.688l7.25,8.091v7.4h.528v-7.4l7.245-8.091Zm-59.789,2.113a7.771,7.771,0,0,0-2.322,5.608,7.849,7.849,0,0,0,8.11,7.938,8.993,8.993,0,0,0,6.191-2.374l.053-.047-.372-.315-.039.034a8.476,8.476,0,0,1-5.833,2.2,7.419,7.419,0,1,1,0-14.834,8.406,8.406,0,0,1,5.748,2.206l.041.036.377-.344-.05-.045a9.02,9.02,0,0,0-6.116-2.353,8.2,8.2,0,0,0-5.788,2.285m-101.548,5.654a7.548,7.548,0,0,1,7.721-7.533,7.834,7.834,0,0,1,5.578,2.22,7.427,7.427,0,0,1,2.19,5.314,7.749,7.749,0,0,1-15.489,0m1.814-5.668a8.017,8.017,0,0,0,5.907,13.654,8.362,8.362,0,0,0,5.948-2.357,8.023,8.023,0,0,0,0-11.3,8.615,8.615,0,0,0-11.855,0m57.272-1.593,5.326,10.205H185.328Zm-8.542,15.029h.6l2.309-4.336H196.29l2.211,4.3.017.033h.576l-8.319-16.008-.053-.1ZM101.03,163.7h4.1l-.514,6.836,3.921-3.921-.343-.343-3,3,.456-6.053h-4.139V154.46a11.815,11.815,0,0,0,4.563,4.107,8.88,8.88,0,0,1,3.758,3.751,6.4,6.4,0,0,1,.675,2.071l.246,2.738L111,164.39a8.106,8.106,0,0,1,4.433-5.822,11.816,11.816,0,0,0,4.563-4.107v8.751h-4.139l.455,6.053-3-3-.343.343,3.921,3.921-.514-6.836h4.1V151.973L120,153.355c-.009.026-.951,2.678-4.809,4.787a8.957,8.957,0,0,0-4.442,5.12,8.956,8.956,0,0,0-4.442-5.12c-3.858-2.11-4.8-4.761-4.808-4.787l-.473-1.4Z" transform="translate(-101.03 -151.954)" fill="url(#linear-gradient)"/>
    </clipPath>
  </defs>
  <g id="Raggruppa_252" data-name="Raggruppa 252" clip-path="url(#clip-path)">
    <rect id="Rettangolo_223" data-name="Rettangolo 223" width="149.343" height="149.343" transform="translate(-9.289 9.289) rotate(-45)" fill="url(#linear-gradient)"/>
  </g>
</svg>
