<svg xmlns="http://www.w3.org/2000/svg" viewBox="0 0 340.04 55.72"><defs><style>.cls-1{fill:#fff;}</style></defs><title>Asset 1</title><g id="Layer_2" data-name="Layer 2"><g id="home"><path class="cls-1" d="M29.29,11.87l4.05,13.36L47.29,25l-11.45,8,4.58,13.18L29.29,37.68,18.17,46.11l4.58-13.18L11.29,25l14,.28,4-13.36M29.29,0,26,10.88,22.71,21.74l-11.35-.23L0,21.28l9.33,6.49,9.31,6.49L14.92,45,11.19,55.72l9.06-6.87,9-6.85,9.05,6.85,9,6.87L43.67,45,39.94,34.26l9.32-6.49,9.32-6.49-11.36.23-11.35.23L32.59,10.88,29.29,0Z"/><path class="cls-1" d="M94.75,11.87l4,13.36,14-.28-11.46,8,4.58,13.18L94.75,37.68,83.62,46.11,88.2,32.93,76.75,25l14,.28,4-13.36M94.75,0l-3.3,10.88L88.16,21.74l-11.34-.23-11.37-.23,9.33,6.49,9.31,6.49L80.37,45,76.64,55.72l9.06-6.87,9-6.85,9,6.85,9.06,6.87L109.12,45,105.4,34.26l9.31-6.49L124,21.28l-11.36.23-11.35.23L98,10.88,94.75,0Z"/><path class="cls-1" d="M166.75,11.87l4,13.36,14-.28-11.46,8,4.58,13.18-11.12-8.43-11.13,8.43,4.58-13.18-11.45-8,13.95.28,4.05-13.36m0-11.87-3.3,10.88-3.29,10.86-11.34-.23-11.37-.23,9.33,6.49,9.31,6.49L152.37,45l-3.73,10.74,9.06-6.87L166.75,42l9,6.85,9.06,6.87L181.12,45,177.4,34.26l9.31-6.49L196,21.28l-11.36.23-11.35.23L170,10.88,166.75,0Z"/><path class="cls-1" d="M238.75,11.87l4,13.36,14-.28-11.46,8,4.58,13.18-11.12-8.43-11.13,8.43,4.58-13.18-11.45-8,13.95.28,4.05-13.36m0-11.87-3.3,10.88-3.29,10.86-11.34-.23-11.37-.23,9.33,6.49,9.31,6.49L224.37,45l-3.73,10.74,9.06-6.87L238.75,42l9,6.85,9.06,6.87L253.12,45,249.4,34.26l9.31-6.49L268,21.28l-11.36.23-11.35.23L242,10.88,238.75,0Z"/><path class="cls-1" d="M310.75,11.87l4,13.36,14-.28-11.46,8,4.58,13.18-11.12-8.43-11.13,8.43,4.58-13.18-11.45-8,13.95.28,4.05-13.36m0-11.87-3.3,10.88-3.29,10.86-11.34-.23-11.37-.23,9.33,6.49,9.31,6.49L296.37,45l-3.73,10.74,9.06-6.87L310.75,42l9,6.85,9.06,6.87L325.12,45,321.4,34.26l9.31-6.49L340,21.28l-11.36.23-11.35.23L314,10.88,310.75,0Z"/></g></g></svg>