<svg xmlns="http://www.w3.org/2000/svg" width="182.091" height="19.419" viewBox="0 0 182.091 19.419">
  <g id="Group_145" data-name="Group 145" transform="translate(-810.762 -9285.998)">
    <g id="Group_140" data-name="Group 140" transform="translate(810.762 9285.998)">
      <path id="Icon_awesome-star" data-name="Icon awesome-star" d="M10.5.675,8.021,5.7,2.48,6.5a1.214,1.214,0,0,0-.671,2.071L5.818,12.48,4.87,18a1.213,1.213,0,0,0,1.76,1.278l4.956-2.605,4.956,2.605A1.214,1.214,0,0,0,18.3,18l-.948-5.518,4.008-3.906A1.214,1.214,0,0,0,20.691,6.5L15.15,5.7,12.674.675a1.215,1.215,0,0,0-2.177,0Z" transform="translate(-1.441 0.001)" fill="#fff"/>
    </g>
    <g id="Group_141" data-name="Group 141" transform="translate(851.212 9285.998)">
      <path id="Icon_awesome-star-2" data-name="Icon awesome-star" d="M10.5.675,8.021,5.7,2.48,6.5a1.214,1.214,0,0,0-.671,2.071L5.818,12.48,4.87,18a1.213,1.213,0,0,0,1.76,1.278l4.956-2.605,4.956,2.605A1.214,1.214,0,0,0,18.3,18l-.948-5.518,4.008-3.906A1.214,1.214,0,0,0,20.691,6.5L15.15,5.7,12.674.675a1.215,1.215,0,0,0-2.177,0Z" transform="translate(-1.441 0.001)" fill="#fff"/>
    </g>
    <g id="Group_144" data-name="Group 144" transform="translate(932.114 9285.998)">
      <path id="Icon_awesome-star-3" data-name="Icon awesome-star" d="M10.5.675,8.021,5.7,2.48,6.5a1.214,1.214,0,0,0-.671,2.071L5.818,12.48,4.87,18a1.213,1.213,0,0,0,1.76,1.278l4.956-2.605,4.956,2.605A1.214,1.214,0,0,0,18.3,18l-.948-5.518,4.008-3.906A1.214,1.214,0,0,0,20.691,6.5L15.15,5.7,12.674.675a1.215,1.215,0,0,0-2.177,0Z" transform="translate(-1.441 0.001)" fill="#fff"/>
    </g>
    <g id="Group_142" data-name="Group 142" transform="translate(891.663 9285.998)">
      <path id="Icon_awesome-star-4" data-name="Icon awesome-star" d="M10.5.675,8.021,5.7,2.48,6.5a1.214,1.214,0,0,0-.671,2.071L5.818,12.48,4.87,18a1.213,1.213,0,0,0,1.76,1.278l4.956-2.605,4.956,2.605A1.214,1.214,0,0,0,18.3,18l-.948-5.518,4.008-3.906A1.214,1.214,0,0,0,20.691,6.5L15.15,5.7,12.674.675a1.215,1.215,0,0,0-2.177,0Z" transform="translate(-1.441 0.001)" fill="#fff"/>
    </g>
    <g id="Group_143" data-name="Group 143" transform="translate(972.564 9285.998)">
      <path id="Icon_awesome-star-5" data-name="Icon awesome-star" d="M10.5.675,8.021,5.7,2.48,6.5a1.214,1.214,0,0,0-.671,2.071L5.818,12.48,4.87,18a1.213,1.213,0,0,0,1.76,1.278l4.956-2.605,4.956,2.605A1.214,1.214,0,0,0,18.3,18l-.948-5.518,4.008-3.906A1.214,1.214,0,0,0,20.691,6.5L15.15,5.7,12.674.675a1.215,1.215,0,0,0-2.177,0Z" transform="translate(-1.441 0.001)" fill="#fff"/>
    </g>
  </g>
</svg>
