<svg xmlns="http://www.w3.org/2000/svg" width="137.656" height="118.094" viewBox="0 0 137.656 118.094">
  <path id="Path_4177" data-name="Path 4177" d="M1108.312,4487.733a114.788,114.788,0,0,0,16.624-19.186c12.469-17.765,19.914-36.467,19.914-50.031a40.433,40.433,0,0,0-40.387-40.387c-7.572,0-17.192,2.994-27.086,8.43l-1.349.742-1.349-.742c-9.893-5.436-19.516-8.43-27.1-8.43a40.434,40.434,0,0,0-40.388,40.387c0,13.558,7.448,32.261,19.921,50.03a114.834,114.834,0,0,0,16.623,19.187c6.227,5.554,11.718,8.49,15.882,8.49,1.441,0,4.835-2.636,10.087-7.834,1.407-1.389,2.845-2.864,4.274-4.387l2.037-2.17,2.042,2.167c1.524,1.616,2.963,3.092,4.276,4.388,5.258,5.2,8.652,7.836,10.089,7.836C1096.592,4496.223,1102.085,4493.287,1108.312,4487.733Zm-34.4-10.724c-2.707-3.087-5.381-6.3-7.948-9.564a177.559,177.559,0,0,1-11.951-16.949,73.576,73.576,0,0,1-7.829-16.222l-.045-.141a17.493,17.493,0,0,1-1.211-6.437c0-.132,0-.263.007-.4a17.945,17.945,0,0,1,17.84-17.453,17.71,17.71,0,0,1,9.691,2.867,17.909,17.909,0,0,1,3.554,3.028,17.967,17.967,0,0,1,3.556-3.032,17.731,17.731,0,0,1,9.684-2.863,17.944,17.944,0,0,1,17.841,17.442c.005.151.006.278.006.406a17.608,17.608,0,0,1-1.041,6v.581l-.311.341a75.6,75.6,0,0,1-7.729,15.884,178.417,178.417,0,0,1-11.948,16.947c-2.6,3.289-5.272,6.507-7.956,9.565l-2.1,2.4Zm17.617,17.194c-2.2-1.271-7.176-5.878-12.667-11.739l-1.74-1.856,1.683-1.91c2.545-2.888,5.017-5.829,7.347-8.74,7.729-9.647,17.69-23.581,21.254-35.175l.072-.245a26.526,26.526,0,0,0,1.246-7.26,19.469,19.469,0,0,0-19.464-19.053,19.256,19.256,0,0,0-11.567,3.823l-1.67,1.241-1.67-1.241a19.269,19.269,0,0,0-11.578-3.823,19.477,19.477,0,0,0-19.465,19.086,26.045,26.045,0,0,0,1.114,6.788l.287.309.013.677c3.65,11.54,13.519,25.328,21.164,34.872,2.31,2.887,4.782,5.829,7.344,8.744l1.68,1.908-1.74,1.856c-5.489,5.859-10.461,10.466-12.664,11.737l-.775.444-.886-.083c-7.368-.694-19.588-11.523-30.41-26.947-12.105-17.247-19.625-36.061-19.625-49.1a38.809,38.809,0,0,1,38.765-38.764c6.21,0,14.174,2.212,22.425,6.229,1.99.963,4.014,2.045,6.02,3.217,1.984-1.16,4.01-2.243,6.029-3.219,8.249-4.016,16.207-6.227,22.407-6.227a38.809,38.809,0,0,1,38.765,38.764c0,13.045-7.518,31.859-19.62,49.1-10.828,15.426-23.051,26.254-30.415,26.947l-.886.083Z" transform="translate(-1007.194 -4378.129)" fill="#f44040"/>
</svg>