<?xml version="1.0" encoding="UTF-8" standalone="no"?>
<!DOCTYPE svg PUBLIC "-//W3C//DTD SVG 1.1//EN" "http://www.w3.org/Graphics/SVG/1.1/DTD/svg11.dtd">
<svg width="100%" height="100%" viewBox="0 0 100 86" version="1.1" xmlns="http://www.w3.org/2000/svg" xmlns:xlink="http://www.w3.org/1999/xlink" xml:space="preserve" xmlns:serif="http://www.serif.com/" style="fill-rule:evenodd;clip-rule:evenodd;stroke-linejoin:round;stroke-miterlimit:2;">
    <g transform="matrix(0.705936,0,0,0.704381,61.9889,3.98046)">
        <path d="M0,110.791L-0.253,110.815L-0.474,110.688C-2.488,109.527 -7.393,104.958 -12.679,99.316L-13.176,98.786L-12.695,98.24C-10.132,95.331 -7.639,92.366 -5.286,89.427C2.561,79.632 12.679,65.458 16.327,53.56L16.344,53.491L16.358,53.463C16.36,53.458 16.361,53.454 16.363,53.45C17.244,50.531 17.702,47.862 17.724,45.517L17.724,45.476C17.523,35.186 10.004,26.461 -0.154,24.746C-1.337,24.546 -2.544,24.444 -3.741,24.444C-8.374,24.444 -12.786,25.903 -16.5,28.662L-16.977,29.017L-17.454,28.662C-21.168,25.903 -25.584,24.444 -30.225,24.444C-31.418,24.444 -32.623,24.546 -33.805,24.746C-43.968,26.456 -51.489,35.181 -51.69,45.491L-51.69,45.523C-51.668,47.831 -51.222,50.462 -50.363,53.336L-50.275,53.43L-50.272,53.627C-46.601,65.513 -36.505,79.651 -28.674,89.427C-26.34,92.343 -23.849,95.309 -21.27,98.241L-20.79,98.786L-21.287,99.316C-26.573,104.958 -31.478,109.527 -33.492,110.688L-33.712,110.815L-33.966,110.791C-40.676,110.159 -52.585,99.425 -62.926,84.687C-74.807,67.759 -82.188,49.386 -82.188,36.735C-82.188,16.464 -65.695,-0.028 -45.423,-0.028C-39.512,-0.028 -31.859,2.112 -23.874,5.999C-21.59,7.104 -19.271,8.363 -16.978,9.743C-14.725,8.384 -12.407,7.125 -10.078,5.998C-2.095,2.112 5.554,-0.028 11.457,-0.028C31.729,-0.028 48.222,16.464 48.222,36.735C48.222,49.392 40.843,67.765 28.966,84.687C18.62,99.425 6.708,110.16 0,110.791M-16.983,94.595L-17.585,93.909C-20.264,90.854 -22.916,87.664 -25.466,84.427C-30.106,78.537 -34.082,72.899 -37.282,67.671C-41.013,61.594 -43.589,56.253 -44.937,51.798L-44.946,51.78L-44.958,51.733C-45.698,49.88 -46.073,47.923 -46.073,45.915C-46.073,45.805 -46.073,45.694 -46.067,45.584L-46.067,45.554C-45.877,37.015 -38.771,30.067 -30.225,30.067C-27.154,30.067 -24.181,30.946 -21.627,32.61C-19.777,33.805 -18.19,35.382 -16.982,37.216C-15.77,35.382 -14.184,33.806 -12.337,32.609C-9.778,30.946 -6.805,30.067 -3.741,30.067C4.805,30.067 11.911,37.015 12.101,45.554L12.101,45.587C12.107,45.696 12.107,45.806 12.107,45.915C12.107,47.862 11.757,49.758 11.066,51.55L11.066,51.716L10.978,51.812C9.607,56.287 7.032,61.622 3.322,67.671C0.142,72.866 -3.833,78.504 -8.494,84.427C-11.067,87.686 -13.72,90.876 -16.382,93.909L-16.983,94.595ZM53.845,36.735C53.845,13.363 34.83,-5.651 11.457,-5.651C3.554,-5.651 -6.407,-2.57 -16.592,3.025L-16.977,3.237L-17.362,3.025C-27.547,-2.57 -37.512,-5.651 -45.423,-5.651C-68.796,-5.651 -87.811,13.363 -87.811,36.735C-87.811,50.69 -80.228,69.822 -67.527,87.914C-62.169,95.551 -56.157,102.487 -50.598,107.445C-44,113.331 -38.048,116.442 -33.385,116.442C-32.266,116.442 -30.391,116.442 -21.892,108.03C-20.455,106.612 -19,105.118 -17.566,103.591L-16.984,102.971L-16.401,103.59C-14.877,105.206 -13.421,106.7 -12.075,108.029C-3.568,116.442 -1.698,116.442 -0.581,116.442C4.084,116.442 10.039,113.331 16.638,107.445C22.197,102.488 28.209,95.552 33.567,87.915C46.264,69.827 53.845,50.695 53.845,36.735" style="fill:white;fill-rule:nonzero;"/>
    </g>
</svg>
