<svg xmlns="http://www.w3.org/2000/svg" width="561.868" height="264.588" viewBox="0 0 561.868 264.588">
  <g id="Group_175" data-name="Group 175" transform="translate(-217.152 -16.102)">
    <path id="GAvlUx.tif" d="M600.5,99.509a11.282,11.282,0,0,0-1.162-4.5c-1.867-3.636-5.047-5.258-9.1-5.253q-10.056.012-20.114,0h-2.314c-.366-1.011-.671-1.8-.942-2.609q-4.4-13.062-8.79-26.127c-1.592-4.711-4.947-6.723-10.027-5.954l-2.125,3.912c1.339,0,2.313,0,3.288,0,3.112.016,4.073.672,5.038,3.55q4.214,12.559,8.393,25.13c.194.583.314,1.191.547,2.1H407.877c-.927,0-1.856-.012-2.781.035a9.628,9.628,0,0,0-9.476,9.636c-.1,3.563-.027,7.13-.016,10.7a5.589,5.589,0,0,0,.189,1.01H600.358a3.115,3.115,0,0,0,.214-.722C600.574,106.779,600.673,103.137,600.5,99.509Zm-4.107,7.417H500.386V94.051c.953-.05,1.847-.137,2.741-.137q37.738-.012,75.479-.006c3.706,0,7.412-.021,11.118.005,4.494.032,6.643,2.215,6.667,6.727C596.4,102.689,596.393,104.739,596.393,106.926ZM479.538,54.957h3.7c.463,2.662.916,5.241,1.36,7.821q.469,2.736.92,5.476a12.709,12.709,0,0,0,13.717,11.032c.211-.013.424,0,.916,0,.031,1.407.074,2.792.089,4.178.015,1.419,0,3.09,0,4.46H429.486a16.239,16.239,0,0,1,.367-1.6q4.3-12.856,8.633-25.7a8.05,8.05,0,0,1,8.069-5.792,1.941,1.941,0,0,1,2.047,1.153c.768,1.6,1.537,3.2,2.4,4.752,2.292,4.1,4.629,8.183,6.961,12.264a12.546,12.546,0,0,0,13.683,6.052,12.932,12.932,0,0,0,10.011-11.654,16.589,16.589,0,0,0-.482-3.794c-.408-2.167-.9-4.317-1.34-6.479C479.7,56.449,479.647,55.764,479.538,54.957Zm32.969,3.909c.245-1.405.45-2.578.676-3.878h3.375c-.237,1.332-.456,2.561-.69,3.878Zm29.6-42.607a16.777,16.777,0,0,0-18.9,12.985c-.308,1.6-.4,3.247-.712,4.847-1.952,9.992-3.949,19.975-5.9,29.966a13.047,13.047,0,0,0-.388,3.585,11.064,11.064,0,0,0,8.6,9.737,10.8,10.8,0,0,0,11.969-5.407c3.022-5.33,6.007-10.681,9.056-15.995,2.729-4.756,5.507-9.484,8.292-14.208a16.937,16.937,0,0,0,2.438-8.734C556.559,24.586,550.19,17.252,542.106,16.259ZM531.462,71.052q1.511-3.4,3.021-6.793c1.774-3.964,3.689-7.872,5.275-11.909.839-2.137,2.036-3.1,4.274-2.78C543.676,51.215,533.021,69.957,531.462,71.052Zm8.2-25.616A12.507,12.507,0,1,1,552.227,33,12.492,12.492,0,0,1,539.664,45.436Zm-41.553-29.32a16.727,16.727,0,0,0-16.749,17.135,39.447,39.447,0,0,0,.867,5.678q2.487,14.637,4.988,29.271a11.1,11.1,0,0,0,21.943.224c.434-2.382.785-4.779,1.2-7.163,1.438-8.205,2.715-16.442,4.377-24.6A16.942,16.942,0,0,0,498.111,16.116Zm8.85,38.4c-.732,4.27-1.514,8.53-2.2,12.806a6.5,6.5,0,0,1-3.428,5.081,7.447,7.447,0,0,1-1.043.33v-22.6l7.9-3.008C507.772,49.645,507.377,52.081,506.961,54.513Zm-8.947-9.077a12.509,12.509,0,1,1,12.757-12.457A12.426,12.426,0,0,1,498.014,45.436ZM479.659,64.907c-1.149-5.8-2.327-11.587-3.442-17.391-1.034-5.383-2.252-10.747-2.943-16.176-1.1-8.632-7.854-15.046-17.54-15.238-5.68.051-10.858,2.908-14.079,8.764-3.266,5.936-2.867,11.9.784,17.62.842,1.32,1.7,2.636,2.468,4q7.227,12.735,14.421,25.488a10.912,10.912,0,0,0,20.331-7.064Zm-23.28-19.471c-6.966.1-12.306-5.483-12.42-13.027-.1-6.467,5.78-12.012,12.571-11.985a12.54,12.54,0,0,1,12.441,12.6C468.962,40.343,462.584,45.751,456.379,45.436ZM470.891,72.77,459.8,49.948a51.15,51.15,0,0,0,6.079-3.013,46.862,46.862,0,0,0,4.936-4.379c.446,2.235.875,4.357,1.291,6.482,1.1,5.587,2.215,11.169,3.262,16.765C475.96,68.97,474.3,71.576,470.891,72.77Z" fill="#f44040"/>
    <text id="INJURY_ATTORNEYS" data-name="INJURY ATTORNEYS" transform="translate(495.116 275.689)" fill="#e3e3e3" font-size="22" font-family="Raleway-Regular, Raleway" letter-spacing="0.27em"><tspan x="-149.534" y="0">INJURY ATTORNEYS</tspan></text>
    <g id="Group_174" data-name="Group 174">
      <path id="Path_20491" data-name="Path 20491" d="M261.439,160.186c-6.1.074-9.154.113-15.256.193q-.031,38.843-.066,77.687c-5.5.544-8.25.823-13.748,1.4q.02-39.45.037-78.9c-6.1.084-9.152.128-15.253.216,0-4.9,0-7.346,0-12.243h44.3C261.447,153.2,261.445,155.526,261.439,160.186Z" fill="#f44040"/>
      <path id="Path_20492" data-name="Path 20492" d="M314.876,232.2c-5.581.4-8.37.608-13.949,1.039.027-15.2.041-22.8.069-37.993-7.5.319-11.244.486-18.739.836-.024,15.469-.037,23.2-.061,38.673-5.53.468-8.294.71-13.821,1.208q.06-43.713.116-87.427H282.33c-.021,14.214-.032,21.321-.054,35.535,7.5-.261,11.244-.386,18.741-.625.025-13.964.038-20.945.062-34.91h13.957Q314.958,190.368,314.876,232.2Z" fill="#f44040"/>
      <path id="Path_20493" data-name="Path 20493" d="M364.264,229.136c-15.361.8-23.039,1.263-38.389,2.3q.082-41.449.163-82.9h38.028c-.008,4.266-.012,6.4-.02,10.664-9.676.067-14.514.1-24.19.183-.018,9.579-.028,14.368-.047,23.946,8.328-.219,12.492-.322,20.821-.512-.008,4.192-.012,6.288-.021,10.48-8.329.249-12.493.382-20.821.668-.021,10.291-.032,15.437-.053,25.727,9.818-.528,14.729-.771,24.55-1.218C364.277,222.739,364.273,224.871,364.264,229.136Z" fill="#f44040"/>
      <path id="Path_20494" data-name="Path 20494" d="M444.194,219.107c-.005,4.731-2.83,7.151-8.476,7.289-14.8.361-22.206.594-37.006,1.169q.067-39.515.132-79.029h36.728q8.22,0,8.214,7.148c-.007,8-.011,12-.019,20a7.286,7.286,0,0,1-2.965,6.181c-.277.2-2.685,1.5-7.225,3.908q7.038,3.551,7.452,3.889a7.4,7.4,0,0,1,3.19,6.365C444.209,205.261,444.2,209.876,444.194,219.107Zm-14.216-41.86c.01-7.557.014-11.335.023-18.891-6.933.023-10.4.036-17.332.065-.013,9.213-.019,13.82-.033,23.032,4.26-.059,6.39-.087,10.65-.14C425.963,179.681,427.3,178.868,429.978,177.247Zm.3,39.469c.011-8.891.017-13.337.029-22.228-2.721-1.473-4.081-2.209-6.8-3.685-4.356.069-6.534.106-10.89.184-.016,10.477-.024,15.716-.04,26.193C419.661,216.973,423.2,216.88,430.283,216.716Z" fill="#f44040"/>
      <path id="Path_20495" data-name="Path 20495" d="M469.181,225.8c-5.544.062-8.316.1-13.861.194q.034-38.73.064-77.458h13.841Q469.206,187.169,469.181,225.8Z" fill="#f44040"/>
      <path id="Path_20496" data-name="Path 20496" d="M526.4,218.734c0,4.706-2.82,7.023-8.467,6.979-11.656-.09-17.485-.1-29.142-.06-5.489.02-8.232-2.307-8.23-7.007q.012-31.5.023-63.01,0-7.1,8.4-7.1H517.9q8.457,0,8.462,7.109c0,6.6.005,9.893.009,16.488-5.562-.019-8.343-.026-13.9-.035,0-5.461,0-8.192,0-13.653-7.217-.006-10.825-.007-18.042-.005q0,28.647-.005,57.3c7.225-.009,10.837,0,18.062.033,0-8.635,0-12.953-.005-21.589-4.12-.013-6.18-.018-10.3-.022,0-3.921,0-5.882,0-9.8,9.683.008,14.524.022,24.206.072C526.384,198.149,526.388,205.011,526.4,218.734Z" fill="#f44040"/>
      <path id="Path_20497" data-name="Path 20497" d="M608.28,220.747q.013,7.262-8.452,6.911c-11.65-.463-17.476-.661-29.13-.992-5.488-.156-8.233-2.593-8.239-7.339q-.037-31.811-.074-63.622-.009-7.169,8.388-7.169h28.921q8.459,0,8.471,7.313c.012,6.784.018,10.176.03,16.961-5.561-.073-8.341-.108-13.9-.172-.009-5.586-.014-8.38-.023-13.967-7.216-.034-10.824-.05-18.041-.078q.04,29.091.081,58.183c7.223.192,10.834.3,18.056.536-.015-8.834-.022-13.25-.036-22.084-4.119-.092-6.178-.135-10.3-.217-.006-3.995-.009-5.993-.015-9.987,9.68.151,14.52.237,24.2.431C608.242,199.572,608.255,206.63,608.28,220.747Z" fill="#f44040"/>
      <path id="Path_20498" data-name="Path 20498" d="M665.671,223.581c.01,5.031-2.824,7.355-8.5,7-11.759-.732-17.64-1.064-29.405-1.661-5.6-.284-8.407-2.848-8.416-7.72q-.068-36.333-.135-72.666h13.84q.068,35.154.136,70.307c7.455.343,11.182.527,18.636.918q-.072-35.613-.141-71.225h13.839Q665.6,186.058,665.671,223.581Z" fill="#f44040"/>
      <path id="Path_20499" data-name="Path 20499" d="M723.664,235.593c-4.842-.428-7.264-.637-12.109-1.042q-10.976-27.457-22.258-54.788a29.5,29.5,0,0,1,.9,6.113q.042,23.493.086,46.984c-5.391-.406-8.087-.6-13.479-.979q-.079-41.671-.16-83.345h12.125q11.332,26.423,22.263,53.015a30.871,30.871,0,0,1-.9-6.248q-.037-23.383-.075-46.767h13.485Q723.6,192.064,723.664,235.593Z" fill="#f44040"/>
      <path id="Path_20500" data-name="Path 20500" d="M779.02,232.639q0,8.457-8.374,7.547c-11.112-1.19-16.67-1.754-27.791-2.822q-8.323-.8-8.334-8.831L734.5,207.55c5.529.344,8.294.521,13.822.884.006,7.286.009,10.929.016,18.214,6.753.58,10.13.88,16.88,1.5,0-7.146,0-10.719-.007-17.865-11.08-11.123-16.626-16.49-27.725-26.924a9.472,9.472,0,0,1-3.023-7.143c-.009-7.831-.014-11.746-.023-19.577q-.009-8.1,8.331-8.1h27.854q8.4,0,8.4,8.4c0,8.28,0,12.42,0,20.7-5.53-.192-8.295-.285-13.826-.467,0-6.867-.005-10.3-.007-17.167-6.764-.09-10.146-.133-16.91-.216.005,6.464.008,9.695.013,16.159,11.1,10.428,16.643,15.8,27.72,26.928a10.475,10.475,0,0,1,3.01,7.707C779.019,219.4,779.02,223.815,779.02,232.639Z" fill="#f44040"/>
    </g>
  </g>
</svg>
