<svg xmlns="http://www.w3.org/2000/svg" viewBox="0 0 193.21 49.86"><defs><style>.a{isolation:isolate;}.b{fill:#534e43;}.c{fill:#aba799;}.d{fill:#33b9c4;}.e,.i{mix-blend-mode:color-burn;opacity:0.2;}.f{fill:#fff;}.g{opacity:0.1;}.h{fill:#ffce00;}</style></defs><g class="a"><path class="b" d="M45.77,37c0-.08.06-.11.2-.11a3,3,0,0,1,.48.1c.27.06.69.13,1.25.2a17.27,17.27,0,0,0,2.06.1,21.14,21.14,0,0,0,11.43-2.91q4.64-2.91,4.64-6.73,0-5.11-10.1-5.12l-1.56,0-1.45,0-3.66,13.1a3.18,3.18,0,0,1-2-.58,1.71,1.71,0,0,1-.76-1.41,15.57,15.57,0,0,1,.56-2.35c.47-1.44,1.06-3.3,1.8-5.57s1.78-5.17,3.15-8.67a80.57,80.57,0,0,1,3.7-8.35,13.44,13.44,0,0,0-2.82.84,17,17,0,0,0-2,1,3.15,3.15,0,0,1-.86.41,1.37,1.37,0,0,1-.81-.42c-.33-.28-.49-.52-.49-.71,1.19-.49,2.14-.86,2.86-1.11a22.72,22.72,0,0,1,6.86-1.12,17.74,17.74,0,0,1,3.09.25,15.66,15.66,0,0,1,3,.84,5.22,5.22,0,0,1,2.48,2,5.87,5.87,0,0,1,.93,3.36q0,6.27-9.26,7.78,9.21.57,9.22,6.58a7.94,7.94,0,0,1-1.86,5.07,13.65,13.65,0,0,1-4.65,3.69,29.87,29.87,0,0,1-5.71,2.13,20.94,20.94,0,0,1-5.29.76C47.26,40.08,45.77,39.07,45.77,37ZM53,21.64a26.61,26.61,0,0,0,4.46-.52,18,18,0,0,0,4-1.32,7.35,7.35,0,0,0,3-2.42,6.15,6.15,0,0,0,1.09-3.63q0-5.25-6.83-5.26a6.43,6.43,0,0,0-.77,0A77.41,77.41,0,0,0,53,21.64Z" transform="translate(0 0)"/><path class="b" d="M69.1,33.85c0-2.48,1.14-5,3.4-7.68s4.56-4,6.88-4a2.2,2.2,0,0,1,2.5,2.47c0,2-1,3.71-3.14,5.22a13.92,13.92,0,0,1-6.85,2.63A6.78,6.78,0,0,0,71.73,34q0,3.41,3.18,3.4a7.91,7.91,0,0,0,5-2.06A16.25,16.25,0,0,0,84,30.21l.49.37A14.69,14.69,0,0,1,80,36.33a9.68,9.68,0,0,1-5.9,2.17,5,5,0,0,1-3.69-1.3A4.59,4.59,0,0,1,69.1,33.85Zm3-2.1a19.64,19.64,0,0,0,5.42-3c1.73-1.35,2.59-2.8,2.59-4.33q0-.93-.84-.93-1.89,0-4.11,2.65A15.32,15.32,0,0,0,72.09,31.75Z" transform="translate(0 0)"/><path class="b" d="M83.26,33.85a23.83,23.83,0,0,1,1.58-7.35,67.49,67.49,0,0,1,3.66-8.71,57.48,57.48,0,0,1,4.2-7.13c1.42-2,2.46-3,3.14-3,.37,0,.69.34,1,1a5.74,5.74,0,0,1,.38,2q0,3-3.31,9.25a31.57,31.57,0,0,1-7.45,9.62,19.1,19.1,0,0,0-.52,4.09c0,2.09.59,3.12,1.78,3.12a4,4,0,0,0,2.83-1.64A17.87,17.87,0,0,0,93.13,31a45.34,45.34,0,0,1,3-9.23,57.42,57.42,0,0,1,4.65-8.87c1.61-2.43,2.81-3.65,3.62-3.65.38,0,.7.34,1,1a5.53,5.53,0,0,1,.39,2q0,3-2.81,8.45A28,28,0,0,1,96,29.51a19.18,19.18,0,0,0-.53,4.09c0,2.09.6,3.12,1.78,3.12a4.21,4.21,0,0,0,3.06-1.9,21.16,21.16,0,0,0,2.77-4.58l.6.33Q100.2,38,96.08,38q-3.24,0-3.24-4.13c0-.41,0-.72,0-.93Q89.85,38,86.49,38T83.26,33.85Zm3.52-5.72A37.92,37.92,0,0,0,93,19.28c1.94-3.65,2.91-6.23,2.91-7.71,0-.43-.1-.65-.29-.65-.37,0-1.12.87-2.24,2.61a57.69,57.69,0,0,0-3.62,6.79A54.69,54.69,0,0,0,86.78,28.13Zm9.58,0a31.64,31.64,0,0,0,5.73-8q2.4-4.69,2.4-6.92c0-.44-.09-.65-.28-.65-.38,0-1,.73-2,2.21a47.73,47.73,0,0,0-3.12,6A55.53,55.53,0,0,0,96.36,28.13Z" transform="translate(0 0)"/><path class="b" d="M99.52,44.52a36.72,36.72,0,0,1,1.78-9.26A115.48,115.48,0,0,1,105.63,23a58.63,58.63,0,0,1,5.68-10.74q3.14-4.59,5.52-4.59c.92,0,1.37.59,1.37,1.77q0,3.31-3.33,7.77a33.18,33.18,0,0,1-7.47,7.37,14.69,14.69,0,0,0-.68,1.78,1.4,1.4,0,0,1,.93,1.25q.48,4.09,3.72,4.09a8.28,8.28,0,0,0,4.12-1.34,50.23,50.23,0,0,1,3.42-9.62,66.38,66.38,0,0,1,5-9.26c1.68-2.54,2.92-3.81,3.7-3.81.37,0,.69.34,1,1a5.8,5.8,0,0,1,.38,2q0,3-3.31,9.23a31.53,31.53,0,0,1-7.45,9.59,19.1,19.1,0,0,0-.52,4.09c0,2.08.59,3.11,1.78,3.11a4.14,4.14,0,0,0,3-1.88,20.06,20.06,0,0,0,2.75-4.59l.65.33q-3.48,7.4-7.61,7.4-3.23,0-3.23-4.13a13.64,13.64,0,0,1,.24-2.42,9.28,9.28,0,0,1-4.49,1.25,5.92,5.92,0,0,1-2.91-.77c0,.86.08,1.5.08,1.9a26.09,26.09,0,0,1-.89,6.7A17.5,17.5,0,0,1,104.71,46c-1,1.42-2,2.14-3,2.14a2,2,0,0,1-1.53-.79A4.28,4.28,0,0,1,99.52,44.52ZM102,44.2c0,1.3.25,1.95.76,1.95q1.18,0,2.65-4.31a24.59,24.59,0,0,0,1.48-8c0-2.13-.42-3.64-1.25-4.53Q102,40,102,44.2Zm6-21.31a40.75,40.75,0,0,0,6.11-7c1.64-2.41,2.47-4.07,2.47-5,0-.35-.19-.53-.57-.53-1,0-2.21,1.17-3.64,3.49A61,61,0,0,0,108.05,22.89Zm10.52,5.22a37.55,37.55,0,0,0,6.23-8.84q2.91-5.48,2.91-7.7c0-.43-.1-.65-.28-.65q-.57,0-2.25,2.61a59.59,59.59,0,0,0-3.62,6.77A54.69,54.69,0,0,0,118.57,28.11Z" transform="translate(0 0)"/><path class="b" d="M124,34.38a10.34,10.34,0,0,1,1.47-5.16c1-1.71,2-2.57,3.18-2.57a2.23,2.23,0,0,1,.85.21,9.25,9.25,0,0,0-1.82,3.21,11.53,11.53,0,0,0-1,4c0,1.6.48,2.39,1.45,2.39,1.19,0,2.63-1.1,4.33-3.32a6.1,6.1,0,0,1-1.76-2.42,8,8,0,0,1-.63-3.12A6,6,0,0,1,131.13,24,3.34,3.34,0,0,1,134,22.49q2.79,0,2.79,3.15c0,2.1-.91,4.51-2.71,7.2a3.12,3.12,0,0,0,1.54.41,4.92,4.92,0,0,0,2.42-.71,4.43,4.43,0,0,0,1.9-2.21l.49.41a5.44,5.44,0,0,1-2.19,2.63,5.63,5.63,0,0,1-2.91.85,4.46,4.46,0,0,1-1.94-.41q-3.24,4.24-6.19,4.25a2.85,2.85,0,0,1-2.42-1A4.24,4.24,0,0,1,124,34.38Zm7.76-6.64a6.49,6.49,0,0,0,1.38,4.37,11.53,11.53,0,0,0,2.34-6.23c0-1.51-.4-2.26-1.21-2.26-.59,0-1.16.41-1.7,1.23A5.17,5.17,0,0,0,131.79,27.74Z" transform="translate(0 0)"/><path class="b" d="M139.19,33.92a16.63,16.63,0,0,1,1.34-5.76c.89-2.29,1.63-3.43,2.22-3.43a2.6,2.6,0,0,1,.91.24c.39.16.59.35.59.56a19.5,19.5,0,0,0-1.78,3.83,12.85,12.85,0,0,0-.93,4.3c0,1.83.47,2.74,1.42,2.74q2.14,0,6.07-7.75a19.74,19.74,0,0,1,.77-3,.91.91,0,0,1,.88-.61q1.17,0,1.17.9a2.66,2.66,0,0,1-.08.45,29.12,29.12,0,0,0-1.13,8.48c0,1.3.3,1.94.89,1.94.75,0,1.72-.84,2.93-2.52a34.75,34.75,0,0,0,3.3-5.77q0-5.13,2-5.13a1.27,1.27,0,0,1,1.07.5,1.68,1.68,0,0,1,.39,1,2.22,2.22,0,0,1-.35,1,10.51,10.51,0,0,0-.7,1.74,8.53,8.53,0,0,0-.37,2.69c0,2.05.64,3.08,1.9,3.08s2.25-1,3.2-3l.52.41q-1.45,3.44-4,3.44c-1.73,0-2.86-1.14-3.4-3.4a26.19,26.19,0,0,1-3.68,5.34c-1.33,1.45-2.57,2.18-3.72,2.18q-2.22,0-2.22-3.88a28.84,28.84,0,0,1,.28-3.64Q145.1,38,142.27,38h0a2.62,2.62,0,0,1-2.17-1.19A4.7,4.7,0,0,1,139.19,33.92Z" transform="translate(0 0)"/><path class="b" d="M163.58,33.85c0-2.48,1.14-5,3.4-7.68s4.56-4,6.88-4a2.2,2.2,0,0,1,2.5,2.47c0,2-1,3.71-3.14,5.22a13.92,13.92,0,0,1-6.85,2.63,6.78,6.78,0,0,0-.16,1.45q0,3.41,3.18,3.4a7.91,7.91,0,0,0,5-2.06,16.25,16.25,0,0,0,4.08-5.1l.49.37a14.69,14.69,0,0,1-4.49,5.75,9.68,9.68,0,0,1-5.9,2.17,5,5,0,0,1-3.69-1.3A4.59,4.59,0,0,1,163.58,33.85Zm3-2.1a19.64,19.64,0,0,0,5.42-3c1.73-1.35,2.59-2.8,2.59-4.33q0-.93-.84-.93-1.89,0-4.11,2.65A15.32,15.32,0,0,0,166.57,31.75Z" transform="translate(0 0)"/><path class="b" d="M177.7,31.59A55.51,55.51,0,0,0,181,23.9a1.26,1.26,0,0,1-.45-1,3.07,3.07,0,0,1,.63-1.92c.41-.55.77-.83,1.07-.83s.56.33.56,1a4.41,4.41,0,0,1-.14.79c-.09.42-.14.66-.14.71a1.49,1.49,0,0,0,.64,1,12.8,12.8,0,0,0,1.41,1A5.12,5.12,0,0,1,186,26.15a3.62,3.62,0,0,1,.66,2.12,10.27,10.27,0,0,1-1,3.7,10.53,10.53,0,0,0-1,3.14,1.08,1.08,0,0,0,1.24,1.21,6,6,0,0,0,3.9-2,12.57,12.57,0,0,0,3-4l.52.41a14.77,14.77,0,0,1-3.64,4.95,7.24,7.24,0,0,1-4.83,2.17,3,3,0,0,1-2.17-.75,2.56,2.56,0,0,1-.79-1.92,11.49,11.49,0,0,1,1.12-3.87,11.62,11.62,0,0,0,1.11-3.7,2.66,2.66,0,0,0-.12-.79,5.14,5.14,0,0,0-.23-.6,1.47,1.47,0,0,0-.42-.51l-.44-.4a4.71,4.71,0,0,0-.55-.41,5.7,5.7,0,0,1-.51-.36,64,64,0,0,1-3.67,7.76Z" transform="translate(0 0)"/><path class="c" d="M119.45,46.29a3.83,3.83,0,0,1-.28,1.53,2.92,2.92,0,0,1-.77,1.08,3.36,3.36,0,0,1-1.19.66,5.22,5.22,0,0,1-1.52.21,8.71,8.71,0,0,1-.87,0,7.05,7.05,0,0,1-.8-.13V43a4.23,4.23,0,0,1,.8-.15,8.71,8.71,0,0,1,.87,0,4.9,4.9,0,0,1,1.52.22,3.19,3.19,0,0,1,1.19.65,2.88,2.88,0,0,1,.77,1.09A3.75,3.75,0,0,1,119.45,46.29Zm-4.76,2.83.3,0a7.08,7.08,0,0,0,.78,0,3.88,3.88,0,0,0,1.29-.2,2.58,2.58,0,0,0,.93-.58,2.29,2.29,0,0,0,.56-.91,3.57,3.57,0,0,0,.19-1.21,3.53,3.53,0,0,0-.19-1.21,2.36,2.36,0,0,0-.56-.91,2.58,2.58,0,0,0-.93-.58,3.88,3.88,0,0,0-1.29-.2,7.08,7.08,0,0,0-.78,0l-.3,0Z" transform="translate(0 0)"/><path class="c" d="M121,49.71V42.87h4v.58h-3.28v2.38h2.93v.58h-2.93v2.72h3.54v.58Z" transform="translate(0 0)"/><path class="c" d="M131.1,49.71q-.19-.35-.48-.81c-.19-.31-.41-.64-.64-1l-.73-1.08c-.26-.37-.51-.74-.77-1.09s-.5-.68-.74-1-.46-.58-.64-.8v5.76h-.67V42.87H127c.33.37.69.81,1.08,1.3s.76,1,1.13,1.5.71,1,1,1.5.58.91.79,1.27V42.87h.66v6.84Z" transform="translate(0 0)"/><path class="c" d="M137.78,42.87v.58h-2.19v6.26h-.67V43.45h-2.19v-.58Z" transform="translate(0 0)"/><path class="c" d="M143,49.71c-.13-.33-.25-.66-.36-1l-.31-.9h-3.35c-.11.29-.22.6-.33.91l-.35,1h-.7l.73-2c.24-.61.46-1.2.68-1.74s.45-1.08.67-1.59.45-1,.69-1.52h.59c.24.51.47,1,.69,1.52s.43,1,.66,1.58.45,1.14.68,1.75.48,1.28.75,2Zm-2.35-6.07c-.25.57-.49,1.14-.73,1.73s-.48,1.22-.73,1.89h2.92c-.25-.67-.49-1.31-.73-1.89S140.84,44.2,140.6,43.64Z" transform="translate(0 0)"/><path class="c" d="M148.56,49.13v.58h-3.89V42.87h.67v6.26Z" transform="translate(0 0)"/><path class="c" d="M156.15,46.47h.67v3.06a5.09,5.09,0,0,1-.74.2,6.33,6.33,0,0,1-1.34.12,3.39,3.39,0,0,1-1.25-.23,2.85,2.85,0,0,1-1-.69,3.17,3.17,0,0,1-.66-1.12,4.45,4.45,0,0,1-.24-1.52,4.23,4.23,0,0,1,.26-1.53,3.18,3.18,0,0,1,.7-1.12,3,3,0,0,1,1-.68,3.22,3.22,0,0,1,1.24-.24,4.07,4.07,0,0,1,1.26.16,3.78,3.78,0,0,1,.72.31l-.23.58a2.19,2.19,0,0,0-.75-.32,3.7,3.7,0,0,0-1-.13,2.58,2.58,0,0,0-1,.19,2.11,2.11,0,0,0-.79.56,2.63,2.63,0,0,0-.53.93,3.89,3.89,0,0,0-.19,1.29,4.71,4.71,0,0,0,.15,1.23,2.73,2.73,0,0,0,.48.93,2.17,2.17,0,0,0,.8.6,2.65,2.65,0,0,0,1.09.21,6.58,6.58,0,0,0,.85,0,2.81,2.81,0,0,0,.46-.11Z" transform="translate(0 0)"/><path class="c" d="M163,44.92a1.75,1.75,0,0,1-.41,1.22,2.35,2.35,0,0,1-1.07.64c.11.13.25.31.41.53s.34.47.52.74.35.54.53.83.31.57.43.83h-.72c-.14-.26-.29-.52-.45-.79s-.33-.51-.49-.76-.34-.48-.49-.69l-.42-.55-.63,0h-1.11v2.76h-.67V43a4.53,4.53,0,0,1,.84-.15c.32,0,.61,0,.88,0a3.6,3.6,0,0,1,2.13.53A1.84,1.84,0,0,1,163,44.92Zm-2.77-1.53a6.38,6.38,0,0,0-.66,0l-.47,0v2.92H160a8.18,8.18,0,0,0,.88-.05,1.9,1.9,0,0,0,.72-.2,1.16,1.16,0,0,0,.49-.44,1.56,1.56,0,0,0,.17-.78,1.54,1.54,0,0,0-.17-.75,1.41,1.41,0,0,0-.47-.47,1.91,1.91,0,0,0-.66-.23A3.77,3.77,0,0,0,160.18,43.39Z" transform="translate(0 0)"/><path class="c" d="M170.63,46.29a4.38,4.38,0,0,1-.26,1.55,3.31,3.31,0,0,1-.69,1.12,3.08,3.08,0,0,1-1,.68,3.55,3.55,0,0,1-2.46,0,3.08,3.08,0,0,1-1-.68,3.31,3.31,0,0,1-.69-1.12,4.17,4.17,0,0,1-.26-1.55,4.09,4.09,0,0,1,.26-1.55,3.31,3.31,0,0,1,.69-1.12,2.91,2.91,0,0,1,1-.67,3.4,3.4,0,0,1,2.46,0,2.91,2.91,0,0,1,1,.67,3.31,3.31,0,0,1,.69,1.12A4.3,4.3,0,0,1,170.63,46.29Zm-.71,0a4,4,0,0,0-.18-1.24,2.72,2.72,0,0,0-.5-.94,2.16,2.16,0,0,0-.79-.58,2.63,2.63,0,0,0-2.06,0,2.16,2.16,0,0,0-.79.58,2.72,2.72,0,0,0-.5.94,4,4,0,0,0-.18,1.24,4,4,0,0,0,.18,1.24,2.77,2.77,0,0,0,.5.93,2.19,2.19,0,0,0,.79.59,2.63,2.63,0,0,0,2.06,0,2.19,2.19,0,0,0,.79-.59,2.77,2.77,0,0,0,.5-.93A4,4,0,0,0,169.92,46.29Z" transform="translate(0 0)"/><path class="c" d="M174.6,49.86a2.9,2.9,0,0,1-1.16-.21,1.79,1.79,0,0,1-.77-.57,2.14,2.14,0,0,1-.43-.85,4,4,0,0,1-.14-1V42.87h.67v4.22a3.1,3.1,0,0,0,.14,1,1.93,1.93,0,0,0,.37.68,1.49,1.49,0,0,0,.57.39,2.23,2.23,0,0,0,1.5,0,1.35,1.35,0,0,0,.57-.39,1.94,1.94,0,0,0,.38-.68,3.45,3.45,0,0,0,.13-1V42.87h.67v4.31a4,4,0,0,1-.13,1,2.44,2.44,0,0,1-.43.85,1.89,1.89,0,0,1-.78.57A2.86,2.86,0,0,1,174.6,49.86Z" transform="translate(0 0)"/><path class="c" d="M180.58,42.81a3.47,3.47,0,0,1,2.16.55,1.86,1.86,0,0,1,.71,1.57,2.2,2.2,0,0,1-.21,1,1.63,1.63,0,0,1-.59.66,2.5,2.5,0,0,1-.94.36,6,6,0,0,1-1.26.12h-.93v2.64h-.67V43a4.42,4.42,0,0,1,.83-.15C180,42.82,180.3,42.81,180.58,42.81Zm0,.58a5.72,5.72,0,0,0-.64,0l-.45,0v3h.85a7.26,7.26,0,0,0,1-.06,2,2,0,0,0,.75-.24,1.11,1.11,0,0,0,.48-.48,1.61,1.61,0,0,0,.17-.78,1.44,1.44,0,0,0-.18-.75,1.3,1.3,0,0,0-.49-.47,2.38,2.38,0,0,0-.68-.24A4.15,4.15,0,0,0,180.61,43.39Z" transform="translate(0 0)"/><path class="d" d="M0,13.19A4.56,4.56,0,0,1,2.07,9.62L17.87.49A4.62,4.62,0,0,1,22,.49L37.8,9.62a4.56,4.56,0,0,1,2.07,3.57V31.44A4.59,4.59,0,0,1,37.8,35L22,44.14a4.55,4.55,0,0,1-4.13,0L2.07,35A4.59,4.59,0,0,1,0,31.44Z" transform="translate(0 0)"/><g class="e"><path d="M22.87,43.49h.26L37.8,35a4.59,4.59,0,0,0,2.07-3.58v-8L29.12,12.69a16.08,16.08,0,0,0-1.33-1.28l-10.42,1.7L9.76,14.82l5.38,4-1.8.2,6.17,8.85-5.73,6.58c.05.05.09.11.15.16Z" transform="translate(0 0)"/></g><path class="f" d="M12.44,16.06l7,3.24,8.3-7.82a5.58,5.58,0,0,0-2.1-1c-2.08-.63-4.22.6-4.57.75a2.94,2.94,0,0,1-2.79,0c-.35-.15-2.49-1.38-4.57-.75a5,5,0,0,0-4,4.3Z" transform="translate(0 0)"/><path class="f" d="M19.25,27.53l-.55-.61-7.83-8.74L9.51,16.66c0,.4,0,.83-.06,1.28a14,14,0,0,0,1.46,6.71c.1.69.43,8,3.31,10.22.76.6,2.55.89,3.17-.47.22-.84.48-4.77,1.61-6.15a1.21,1.21,0,0,1,.51-.42Z" transform="translate(0 0)"/><path class="f" d="M29.63,14.78l-8.85,12-.49.66L20,27.9a1.91,1.91,0,0,1,.31.28c1.19,1.31,1.44,5.37,1.67,6.22.62,1.36,2.41,1.07,3.17.47,2.88-2.27,3.21-9.53,3.31-10.22a14,14,0,0,0,1.46-6.71A19.4,19.4,0,0,0,29.63,14.78Z" transform="translate(0 0)"/><path class="g" d="M29.63,14.78l-8.85,12-.49.66L20,27.9a1.91,1.91,0,0,1,.31.28c1.19,1.31,1.44,5.37,1.67,6.22.62,1.36,2.41,1.07,3.17.47,2.88-2.27,3.21-9.53,3.31-10.22a14,14,0,0,0,1.46-6.71A19.4,19.4,0,0,0,29.63,14.78Z" transform="translate(0 0)"/><path class="g" d="M27.74,11.48a5.58,5.58,0,0,0-2.1-1c-2.08-.63-4.22.6-4.57.75a3.51,3.51,0,0,1-1.4.35v7.47Z" transform="translate(0 0)"/><polygon class="h" points="11.87 17.28 19.7 26.02 30.7 10.88 19.7 20.91 11.87 17.28"/><polygon class="i" points="19.7 24.15 11.87 17.28 19.7 26.02 30.7 10.88 30.34 11.22 19.7 24.15"/></g></svg>