<svg id="Logo" xmlns="http://www.w3.org/2000/svg" width="332.878" height="94" viewBox="0 0 332.878 94">
  <g id="Group_8" data-name="Group 8">
    <g id="Group_1" data-name="Group 1" transform="translate(78.778 13.283)">
      <path id="Path_1" data-name="Path 1" d="M57.1,63.119c0-.168.168-.168.335-.168a2.243,2.243,0,0,1,.838.168,20.6,20.6,0,0,0,2.179.335,22.5,22.5,0,0,0,3.52.168c7.71,0,14.415-1.676,19.611-5.028q8.045-5.028,8.045-11.565c0-5.866-5.866-8.883-17.432-8.883H69L62.631,60.772a5.319,5.319,0,0,1-3.352-1.006,3.14,3.14,0,0,1-1.341-2.347A21.094,21.094,0,0,1,58.944,53.4q1.257-3.771,3.017-9.554c1.173-3.855,3.017-8.883,5.364-14.917a146.832,146.832,0,0,1,6.369-14.415,23.413,23.413,0,0,0-4.861,1.509A20.3,20.3,0,0,0,65.481,17.7a4.23,4.23,0,0,1-1.509.67,2,2,0,0,1-1.341-.67,3.3,3.3,0,0,1-.67-1.341,51.125,51.125,0,0,1,4.861-1.844A34.2,34.2,0,0,1,71.85,13.17a43.264,43.264,0,0,1,6.7-.67c1.844,0,3.687.168,5.364.335a35.465,35.465,0,0,1,5.2,1.509A9.592,9.592,0,0,1,93.472,17.7a10.389,10.389,0,0,1,1.676,5.7c0,7.207-5.364,11.733-15.923,13.409,10.56.67,15.923,4.358,15.923,11.4a13.344,13.344,0,0,1-3.185,8.716,23.019,23.019,0,0,1-8.045,6.369,54.193,54.193,0,0,1-9.889,3.687,38.168,38.168,0,0,1-9.051,1.341C59.614,68.482,57.1,66.639,57.1,63.119ZM69.5,36.636a54.289,54.289,0,0,0,7.71-.838,33.263,33.263,0,0,0,6.872-2.347,12.822,12.822,0,0,0,5.2-4.19,11.239,11.239,0,0,0,1.844-6.2c0-6.034-3.855-9.051-11.733-9.051H78.051Q73.777,22.054,69.5,36.636Z" transform="translate(-57.1 -12.5)" fill="#fff"/>
      <path id="Path_2" data-name="Path 2" d="M81.1,47.613c0-4.19,2.011-8.716,5.866-13.241s7.878-6.872,11.9-6.872c2.849,0,4.358,1.341,4.358,4.19,0,3.352-1.844,6.369-5.364,9.051a22.673,22.673,0,0,1-11.733,4.526,12.939,12.939,0,0,0-.335,2.514c0,3.855,1.844,5.866,5.531,5.866q4.274,0,8.548-3.52a29.847,29.847,0,0,0,7.04-8.716l.838.67a24.011,24.011,0,0,1-7.71,9.889,16.678,16.678,0,0,1-10.224,3.687c-2.682,0-4.861-.67-6.369-2.179A7.71,7.71,0,0,1,81.1,47.613Zm5.2-3.687a34.815,34.815,0,0,0,9.386-5.2c3.017-2.347,4.526-4.861,4.526-7.375,0-1.006-.5-1.676-1.509-1.676q-3.268,0-7.04,4.526A22.454,22.454,0,0,0,86.3,43.926Z" transform="translate(-40.873 -2.358)" fill="#fff"/>
      <path id="Path_3" data-name="Path 3" d="M95.6,57.588c0-3.185.838-7.375,2.682-12.739a107.879,107.879,0,0,1,6.369-14.917A98.532,98.532,0,0,1,111.858,17.7c2.514-3.52,4.19-5.2,5.364-5.2.67,0,1.173.5,1.676,1.676a8.524,8.524,0,0,1,.67,3.352c0,3.52-1.844,8.883-5.7,15.923-3.855,7.207-8.045,12.739-12.739,16.594a28.5,28.5,0,0,0-.838,7.04c0,3.52,1.006,5.364,3.017,5.364,1.509,0,3.185-1.006,4.861-2.849a28.326,28.326,0,0,0,4.526-7.04,82.669,82.669,0,0,1,5.2-15.923,85.563,85.563,0,0,1,8.045-15.253c2.682-4.19,4.861-6.2,6.2-6.2.67,0,1.173.5,1.676,1.676a8.524,8.524,0,0,1,.67,3.352c0,3.52-1.676,8.381-4.861,14.582a49.745,49.745,0,0,1-11.9,15.253,28.5,28.5,0,0,0-.838,7.04c0,3.52,1.006,5.364,3.017,5.364,1.676,0,3.52-1.173,5.2-3.352a32.672,32.672,0,0,0,4.693-7.878l1.006.5c-4.023,8.548-8.381,12.739-13.074,12.739q-5.531,0-5.531-7.04V55.744c-3.52,5.866-7.207,8.716-11.062,8.716C97.444,64.795,95.6,62.448,95.6,57.588Zm6.2-9.722a62.431,62.431,0,0,0,10.727-15.253c3.352-6.369,5.028-10.727,5.028-13.241,0-.67-.168-1.173-.5-1.173-.67,0-2.011,1.509-3.855,4.526A102.914,102.914,0,0,0,107,34.457,75.564,75.564,0,0,0,101.8,47.866Zm16.426,0a56.576,56.576,0,0,0,9.889-13.744c2.682-5.364,4.19-9.386,4.19-11.9,0-.67-.168-1.173-.5-1.173-.67,0-1.844,1.341-3.352,3.855a91.275,91.275,0,0,0-5.364,10.224A79.266,79.266,0,0,0,118.228,47.866Z" transform="translate(-31.069 -12.5)" fill="#fff"/>
      <path id="Path_4" data-name="Path 4" d="M112.3,75.957c0-3.52,1.006-8.883,3.017-15.923a210.951,210.951,0,0,1,7.375-21.119,99.715,99.715,0,0,1,9.721-18.437c3.52-5.2,6.7-7.878,9.554-7.878,1.508,0,2.347,1.006,2.347,3.017,0,3.855-1.844,8.213-5.7,13.409a54.648,54.648,0,0,1-12.906,12.739c-.5,1.173-.838,2.179-1.173,3.017a2.917,2.917,0,0,1,1.676,2.179c.5,4.693,2.682,7.04,6.369,7.04a14.014,14.014,0,0,0,7.04-2.347,79.689,79.689,0,0,1,5.866-16.594A106.168,106.168,0,0,1,154.2,19.137c2.849-4.358,5.028-6.537,6.369-6.537.67,0,1.173.5,1.676,1.676a8.754,8.754,0,0,1,.67,3.52c0,3.52-1.844,8.716-5.7,15.923-3.855,7.04-8.045,12.571-12.739,16.594a28.5,28.5,0,0,0-.838,7.04c0,3.52,1.006,5.364,3.017,5.364,1.676,0,3.52-1.006,5.2-3.185a32.671,32.671,0,0,0,4.693-7.878l1.173.5c-4.023,8.548-8.381,12.739-13.074,12.739q-5.531,0-5.531-7.04a41.834,41.834,0,0,1,.335-4.19,15.44,15.44,0,0,1-7.71,2.179,10.239,10.239,0,0,1-5.028-1.341,27.422,27.422,0,0,1,.168,3.352,45.654,45.654,0,0,1-1.509,11.565,28.752,28.752,0,0,1-4.023,9.386c-1.676,2.514-3.352,3.687-5.2,3.687a3.778,3.778,0,0,1-2.682-1.341A10.823,10.823,0,0,1,112.3,75.957Zm4.358-.5c0,2.179.5,3.352,1.341,3.352,1.341,0,2.849-2.514,4.526-7.375a43.566,43.566,0,0,0,2.514-13.744c0-3.687-.67-6.2-2.179-7.878C118.837,62.046,116.658,70.594,116.658,75.455ZM127.05,38.747a69.864,69.864,0,0,0,10.56-12.068c2.849-4.19,4.19-7.04,4.19-8.548,0-.67-.335-.838-1.006-.838-1.676,0-3.855,2.011-6.2,6.034A88.262,88.262,0,0,0,127.05,38.747Zm18.1,9.051a62.431,62.431,0,0,0,10.727-15.253c3.352-6.369,5.028-10.727,5.028-13.241,0-.67-.168-1.173-.5-1.173-.67,0-2.011,1.509-3.855,4.526a81.662,81.662,0,0,0-6.2,11.733A91.147,91.147,0,0,0,145.152,47.8Z" transform="translate(-19.778 -12.432)" fill="#fff"/>
      <path id="Path_5" data-name="Path 5" d="M137.5,48.181a17.9,17.9,0,0,1,2.514-8.883c1.676-3.017,3.52-4.358,5.531-4.358a8.5,8.5,0,0,1,1.508.335c-.838.67-2.011,2.514-3.185,5.531s-1.844,5.2-1.844,6.872c0,2.682.838,4.19,2.514,4.19,2.011,0,4.526-1.844,7.375-5.7a9.667,9.667,0,0,1-3.017-4.19,14.518,14.518,0,0,1-1.006-5.364,10.461,10.461,0,0,1,1.844-6.2,5.769,5.769,0,0,1,5.028-2.514c3.185,0,4.861,1.844,4.861,5.364s-1.508,7.71-4.693,12.4a4.918,4.918,0,0,0,2.682.67,8.392,8.392,0,0,0,4.19-1.173,7.665,7.665,0,0,0,3.352-3.855l.838.67a10.032,10.032,0,0,1-3.687,4.526,9.7,9.7,0,0,1-5.028,1.509,7.5,7.5,0,0,1-3.352-.67c-3.687,4.861-7.207,7.375-10.727,7.375-1.844,0-3.352-.5-4.19-1.676A8.345,8.345,0,0,1,137.5,48.181Zm13.409-11.4a11.59,11.59,0,0,0,2.347,7.543c2.682-4.023,4.023-7.543,4.023-10.727,0-2.682-.67-3.855-2.011-3.855-1.006,0-2.011.67-2.849,2.179A7.648,7.648,0,0,0,150.909,36.783Z" transform="translate(-2.74 -2.088)" fill="#fff"/>
      <path id="Path_6" data-name="Path 6" d="M153.1,46.87a28.652,28.652,0,0,1,2.347-9.889c1.508-4.023,2.849-5.866,3.855-5.866a8.5,8.5,0,0,1,1.509.335q1.006.5,1.006,1.006a30.362,30.362,0,0,0-3.017,6.537,23.882,23.882,0,0,0-1.676,7.375c0,3.185.838,4.693,2.514,4.693,2.514,0,6.034-4.526,10.392-13.409a22.932,22.932,0,0,1,1.341-5.2,1.611,1.611,0,0,1,1.509-1.006q2.011,0,2.011,1.509a2.243,2.243,0,0,1-.168.838,47.907,47.907,0,0,0-2.011,14.582c0,2.179.5,3.352,1.508,3.352,1.341,0,3.017-1.509,5.028-4.358a61.308,61.308,0,0,0,5.7-9.889c0-5.866,1.173-8.883,3.52-8.883a2.4,2.4,0,0,1,1.844.838,2.521,2.521,0,0,1,.67,1.844,3.107,3.107,0,0,1-.67,1.676,14.119,14.119,0,0,0-1.173,3.017,18.571,18.571,0,0,0-.67,4.693c0,3.52,1.173,5.364,3.352,5.364,2.011,0,3.855-1.676,5.531-5.2l.838.67c-1.676,4.023-4.023,5.866-6.872,5.866-3.017,0-4.861-2.011-5.866-5.866a44.452,44.452,0,0,1-6.369,9.219c-2.347,2.514-4.358,3.687-6.369,3.687-2.514,0-3.855-2.179-3.855-6.7a47.966,47.966,0,0,1,.5-6.2c-4.19,8.213-7.878,12.4-11.062,12.4h0a4.409,4.409,0,0,1-3.687-2.011A8.145,8.145,0,0,1,153.1,46.87Z" transform="translate(7.808 -1.614)" fill="#fff"/>
      <path id="Path_7" data-name="Path 7" d="M178.2,47.613c0-4.19,2.011-8.716,5.866-13.241s7.878-6.872,11.9-6.872c2.849,0,4.358,1.341,4.358,4.19,0,3.352-1.844,6.369-5.364,9.051a22.673,22.673,0,0,1-11.733,4.526,12.939,12.939,0,0,0-.335,2.514c0,3.855,1.844,5.866,5.531,5.866q4.274,0,8.548-3.52a29.847,29.847,0,0,0,7.04-8.716l.838.67a24.011,24.011,0,0,1-7.71,9.889,16.678,16.678,0,0,1-10.224,3.687c-2.682,0-4.861-.67-6.369-2.179A7.71,7.71,0,0,1,178.2,47.613Zm5.2-3.687a34.815,34.815,0,0,0,9.386-5.2c3.017-2.347,4.526-4.861,4.526-7.375,0-1.006-.5-1.676-1.509-1.676q-3.268,0-7.04,4.526A22.454,22.454,0,0,0,183.4,43.926Z" transform="translate(24.778 -2.358)" fill="#fff"/>
      <path id="Path_8" data-name="Path 8" d="M192.7,45.078a101.68,101.68,0,0,0,5.7-13.241,2.327,2.327,0,0,1-.838-1.676,6.044,6.044,0,0,1,1.006-3.352c.67-1.006,1.341-1.509,1.844-1.509.67,0,1.006.5,1.006,1.676a5.392,5.392,0,0,1-.168,1.341,5.358,5.358,0,0,0-.168,1.173,2.6,2.6,0,0,0,1.173,1.844,28.656,28.656,0,0,0,2.347,1.844,8.891,8.891,0,0,1,2.514,2.514,6.033,6.033,0,0,1,1.173,3.687,17.966,17.966,0,0,1-1.844,6.369c-1.173,2.682-1.844,4.526-1.844,5.364,0,1.341.67,2.011,2.179,2.011,2.011,0,4.358-1.173,6.7-3.52a22.472,22.472,0,0,0,5.2-6.872l.838.67a27.923,27.923,0,0,1-6.2,8.548,12.187,12.187,0,0,1-8.381,3.687,5.218,5.218,0,0,1-3.687-1.341,4.68,4.68,0,0,1-1.341-3.352,22.59,22.59,0,0,1,1.844-6.7c1.173-3.017,1.844-5.2,1.844-6.369a3.691,3.691,0,0,0-.168-1.341,6.591,6.591,0,0,1-.335-1.006,2.942,2.942,0,0,0-.67-.838l-.838-.67a9.928,9.928,0,0,0-1.006-.67c-.5-.335-.838-.5-.838-.67a115.006,115.006,0,0,1-6.369,13.409Z" transform="translate(34.582 -3.846)" fill="#fff"/>
    </g>
    <text id="Dental_group" data-name="Dental group" transform="translate(193 90)" fill="#a09e96" font-size="18" font-family="SF Compact" font-weight="200"><tspan x="0" y="0">DENTAL GROUP</tspan></text>
  </g>
  <g id="Group_6" data-name="Group 6">
    <path id="Path_20" data-name="Path 20" d="M10.1,27.412a8.466,8.466,0,0,1,3.52-6.2L40.773,5.455a7.478,7.478,0,0,1,7.04,0L74.966,21.21a7.716,7.716,0,0,1,3.52,6.2V58.923a8.466,8.466,0,0,1-3.52,6.2L47.98,80.713a7.478,7.478,0,0,1-7.04,0L13.787,64.957A7.208,7.208,0,0,1,10.1,58.923Z" transform="translate(-10.1 -4.575)" fill="#33b9c4"/>
    <g id="Group_3" data-name="Group 3" transform="translate(16.929 19.82)" opacity="0.2">
      <path id="Path_21" data-name="Path 21" d="M42.66,71.712h.5L68.472,57.13a7.716,7.716,0,0,0,3.52-6.2V37.184c-8.213-8.213-17.767-17.767-18.437-18.6A29.966,29.966,0,0,0,51.208,16.4L33.274,19.249,20.2,22.266l9.219,6.872-3.017.335,10.56,15.253L26.9,55.956l.335.335Z" transform="translate(-20.2 -16.4)"/>
    </g>
    <g id="Group_4" data-name="Group 4" transform="translate(16.258 17.968)">
      <path id="Path_22" data-name="Path 22" d="M24.861,25.193l12.068,5.531L51.176,17.315a8.321,8.321,0,0,0-3.687-1.676c-3.52-1.173-7.207,1.006-7.878,1.341a5.01,5.01,0,0,1-4.861,0c-.67-.335-4.358-2.347-7.878-1.341-3.855,1.006-5.866,3.185-6.872,7.375Z" transform="translate(-19.665 -15.295)" fill="#fff"/>
      <path id="Path_23" data-name="Path 23" d="M36.729,40.573l-1.006-1.006L22.314,24.482,19.968,21.8c0,.67-.168,1.509-.168,2.179a24.95,24.95,0,0,0,2.514,11.565c.168,1.173.67,13.744,5.7,17.6,1.341,1.006,4.358,1.509,5.531-.838.335-1.509.838-8.213,2.849-10.56.335-.335.67-.67.838-.67Z" transform="translate(-19.8 -10.897)" fill="#fff"/>
      <path id="Path_24" data-name="Path 24" d="M47.194,19.9,31.941,40.684,31.1,41.857l-.5.67.5.5c2.011,2.179,2.514,9.219,2.849,10.727,1.006,2.347,4.19,1.844,5.531.838,5.028-3.855,5.531-16.426,5.7-17.6A24.95,24.95,0,0,0,47.7,25.431,25.943,25.943,0,0,0,47.194,19.9Z" transform="translate(-12.498 -12.181)" fill="#fff"/>
    </g>
    <g id="Group_5" data-name="Group 5" transform="translate(33.858 17.968)">
      <path id="Path_25" data-name="Path 25" d="M47.194,19.9,31.941,40.684,31.1,41.857l-.5.67.5.5c2.011,2.179,2.514,9.219,2.849,10.727,1.006,2.347,4.19,1.844,5.531.838,5.028-3.855,5.531-16.426,5.7-17.6A24.95,24.95,0,0,0,47.7,25.431,25.943,25.943,0,0,0,47.194,19.9Z" transform="translate(-30.097 -12.181)" opacity="0.1" style="isolation: isolate"/>
      <path id="Path_26" data-name="Path 26" d="M44.212,17.315a8.321,8.321,0,0,0-3.687-1.676c-3.52-1.173-7.207,1.006-7.878,1.341a8.528,8.528,0,0,1-2.347.67V30.556Z" transform="translate(-30.3 -15.295)" opacity="0.1" style="isolation: isolate"/>
    </g>
    <path id="Path_27" data-name="Path 27" d="M22.3,26.862,35.709,41.947,54.649,15.8,35.709,33.232Z" transform="translate(-1.851 3.014)" fill="#ffce00"/>
    <path id="Path_28" data-name="Path 28" d="M35.709,38.763,22.3,26.862,35.709,41.947,54.649,15.8l-.5.67Z" transform="translate(-1.851 3.014)" opacity="0.2" style="isolation: isolate"/>
  </g>
</svg>
