<svg xmlns="http://www.w3.org/2000/svg" width="563.275" height="71.698" viewBox="0 0 563.275 71.698">
  <g id="Group_186" data-name="Group 186" transform="translate(-225.175 -42.651)">
    <g id="Group_173" data-name="Group 173" transform="translate(263.264 -198.418)">
      <path id="Path_20481" data-name="Path 20481" d="M185.786,260.1H175.779v52.669h-9.036V260.1H156.736v-8.029h29.05Z" fill="#fff"/>
      <path id="Path_20482" data-name="Path 20482" d="M220.925,312.767h-9.154V285.54H199.477v27.227H190.4v-60.7h9.076v25.016h12.294V252.069h9.154Z" fill="#fff"/>
      <path id="Path_20483" data-name="Path 20483" d="M253.309,312.767H228.138v-60.7h24.938V260.1H237.214v17.724h13.651V285.7H237.214v19.043h16.1Z" fill="#fff"/>
      <path id="Path_20484" data-name="Path 20484" d="M305.668,307.221q0,5.545-5.547,5.546h-24.24v-60.7h24.085q5.391,0,5.391,5.585v15.63a6.067,6.067,0,0,1-1.939,4.81q-.271.232-4.731,2.986,4.614,2.832,4.886,3.1a6.284,6.284,0,0,1,2.1,5Zm-9.348-32.812v-14.7H284.957v17.8h6.981Zm.234,30.717v-17.3l-4.461-2.947h-7.136v20.245Z" fill="#fff"/>
      <path id="Path_20485" data-name="Path 20485" d="M322.034,312.767h-9.075v-60.7h9.075Z" fill="#fff"/>
      <path id="Path_20486" data-name="Path 20486" d="M359.5,307.221q0,5.545-5.547,5.546H334.872q-5.393,0-5.392-5.546V257.654q0-5.584,5.508-5.585h18.965q5.545,0,5.547,5.585v12.954h-9.113V259.865h-11.83v45.106h11.83V287.983h-6.75v-7.717H359.5Z" fill="#fff"/>
      <path id="Path_20487" data-name="Path 20487" d="M413.14,307.221q0,5.545-5.547,5.546H388.512q-5.393,0-5.392-5.546V257.654q0-5.584,5.508-5.585h18.965q5.546,0,5.547,5.585v12.954h-9.115V259.865H392.2v45.106h11.829V287.983h-6.749v-7.717H413.14Z" fill="#fff"/>
      <path id="Path_20488" data-name="Path 20488" d="M450.76,307.221q0,5.545-5.585,5.546H425.9q-5.506,0-5.507-5.546V252.069h9.076v52.9h12.217v-52.9h9.075Z" fill="#fff"/>
      <path id="Path_20489" data-name="Path 20489" d="M488.807,312.767h-7.951l-14.544-38.2a22.925,22.925,0,0,1,.582,4.383v33.82h-8.843v-60.7H466L480.546,289.5a22.906,22.906,0,0,1-.582-4.383V252.069h8.843Z" fill="#fff"/>
      <path id="Path_20490" data-name="Path 20490" d="M525.186,307.221q0,5.545-5.507,5.546H501.411q-5.468,0-5.469-5.546V292.754h9.077v12.372H516.11V293.22L497.921,276a6.434,6.434,0,0,1-1.979-4.848v-13.5q0-5.584,5.469-5.585h18.268q5.506,0,5.507,5.508v13.574H516.11V259.71H505.019v10.976l18.189,17.142a6.451,6.451,0,0,1,1.978,4.926Z" fill="#fff"/>
    </g>
    <path id="GAvlUx.tif" d="M166.946,202.532a8.521,8.521,0,0,0-.877-3.391,7.14,7.14,0,0,0-6.868-3.964q-7.587.01-15.175,0H142.28c-.276-.762-.506-1.36-.711-1.968q-3.318-9.855-6.631-19.712c-1.2-3.554-3.732-5.072-7.565-4.491l-1.6,2.951c1.009,0,1.745,0,2.48,0,2.348.011,3.073.507,3.8,2.677q3.179,9.475,6.332,18.959c.147.44.237.9.413,1.582h-2.233q-57.469,0-114.939,0c-.7,0-1.4-.01-2.1.026a7.263,7.263,0,0,0-7.149,7.27c-.072,2.688-.02,5.38-.012,8.07a4.223,4.223,0,0,0,.143.761H166.838a2.331,2.331,0,0,0,.161-.545C167,208.017,167.076,205.27,166.946,202.532Zm-3.1,5.6H91.416v-9.713c.719-.038,1.393-.1,2.068-.1q28.472-.008,56.944,0c2.8,0,5.593-.015,8.389,0,3.39.024,5.012,1.671,5.029,5.075C163.854,204.932,163.847,206.477,163.847,208.127ZM75.688,168.92h2.79c.35,2.009.691,3.955,1.026,5.9q.355,2.064.695,4.131a9.587,9.587,0,0,0,10.349,8.323c.159-.009.319,0,.69,0,.024,1.061.056,2.106.067,3.152.012,1.071,0,2.33,0,3.364H37.927a12.279,12.279,0,0,1,.277-1.208q3.246-9.7,6.513-19.391a6.073,6.073,0,0,1,6.088-4.37,1.463,1.463,0,0,1,1.544.869c.579,1.208,1.16,2.417,1.812,3.586,1.729,3.1,3.492,6.173,5.252,9.252a9.466,9.466,0,0,0,10.323,4.565,9.756,9.756,0,0,0,7.553-8.791,12.526,12.526,0,0,0-.363-2.863c-.309-1.634-.683-3.257-1.011-4.888C75.813,170.047,75.77,169.529,75.688,168.92Zm24.873,2.949.511-2.926h2.545c-.179,1.006-.343,1.932-.521,2.926Zm22.33-32.143a12.656,12.656,0,0,0-14.26,9.8c-.232,1.209-.3,2.449-.537,3.657-1.473,7.538-2.979,15.069-4.453,22.607a9.818,9.818,0,0,0-.292,2.7,8.346,8.346,0,0,0,6.486,7.346,8.147,8.147,0,0,0,9.029-4.078c2.28-4.021,4.532-8.058,6.832-12.068,2.059-3.588,4.155-7.154,6.256-10.718a12.779,12.779,0,0,0-9.061-19.246Zm-8.03,41.337q1.14-2.562,2.279-5.124c1.338-2.991,2.784-5.939,3.98-8.985.633-1.611,1.537-2.337,3.225-2.1C124.076,166.1,116.038,180.238,114.861,181.063Zm6.188-19.325a9.435,9.435,0,1,1,9.478-9.384A9.424,9.424,0,0,1,121.049,161.738ZM89.7,139.618a12.62,12.62,0,0,0-12.636,12.927,29.77,29.77,0,0,0,.654,4.284q1.877,11.041,3.763,22.082a8.377,8.377,0,0,0,16.554.169c.327-1.8.592-3.6.908-5.4,1.085-6.189,2.048-12.4,3.3-18.559A12.783,12.783,0,0,0,89.7,139.618Zm6.677,28.969c-.552,3.221-1.142,6.435-1.66,9.661a4.908,4.908,0,0,1-2.586,3.833,5.646,5.646,0,0,1-.787.248V165.282l5.961-2.269C96.989,164.913,96.691,166.751,96.377,168.586Zm-6.75-6.849a9.437,9.437,0,1,1,9.625-9.4A9.374,9.374,0,0,1,89.627,161.737Zm-13.848,14.69c-.867-4.373-1.755-8.742-2.6-13.12-.78-4.061-1.7-8.108-2.22-12.2-.83-6.512-5.925-11.351-13.233-11.5a11.967,11.967,0,0,0-10.622,6.613c-2.463,4.478-2.162,8.973.592,13.293.634,1,1.279,1.989,1.862,3.015q5.451,9.608,10.879,19.229a8.232,8.232,0,0,0,15.338-5.329Zm-17.562-14.69c-5.256.078-9.285-4.137-9.371-9.829-.074-4.879,4.361-9.061,9.484-9.042a9.435,9.435,0,1,1-.113,18.871ZM69.164,182.36,60.8,165.142a38.527,38.527,0,0,0,4.586-2.273,35.283,35.283,0,0,0,3.724-3.3c.336,1.686.66,3.288.974,4.891.826,4.215,1.672,8.426,2.462,12.647C72.989,179.493,71.739,181.458,69.164,182.36Z" transform="translate(212.835 -96.956)" fill="#fff"/>
  </g>
</svg>
