<svg xmlns="http://www.w3.org/2000/svg" xmlns:xlink="http://www.w3.org/1999/xlink" width="248.704" height="251.435" viewBox="0 0 248.704 251.435">
  <defs>
    <linearGradient id="linear-gradient" x1="1.081" y1="0.821" x2="-0.045" y2="0.058" gradientUnits="objectBoundingBox">
      <stop offset="0" stop-color="aqua"/>
      <stop offset="1" stop-color="lime"/>
    </linearGradient>
  </defs>
  <g id="Group_428" data-name="Group 428" transform="translate(-827.99 -6421)">
    <circle id="Ellipse_3" data-name="Ellipse 3" cx="119.132" cy="119.132" r="119.132" transform="translate(828.99 6433.172)" fill="none" stroke="#231f20" stroke-miterlimit="10" stroke-width="2"/>
    <g id="Group_309" data-name="Group 309" transform="translate(-206.066 3876.161)">
      <path id="Path_4297" data-name="Path 4297" d="M1253.252,2750.094a9.669,9.669,0,0,1-8.053-15,110.214,110.214,0,0,0-91.968-170.922,9.666,9.666,0,1,1,0-19.332,129.544,129.544,0,0,1,108.09,200.922A9.653,9.653,0,0,1,1253.252,2750.094Z" fill="url(#linear-gradient)"/>
    </g>
    <g id="Group_311" data-name="Group 311" transform="translate(-206.066 3876.161)">
      <g id="Group_310" data-name="Group 310">
        <path id="Path_4298" data-name="Path 4298" d="M1172.448,2675.673h-34.584v-6.761l15.965-18.053a40.343,40.343,0,0,0,5.079-7.134,11.836,11.836,0,0,0,1.505-5.363,7.711,7.711,0,0,0-1.593-5.1,5.864,5.864,0,0,0-4.78-1.912,6.129,6.129,0,0,0-5.2,2.443,10,10,0,0,0-1.841,6.195h-10.054l-.07-.213a15.305,15.305,0,0,1,4.531-11.629q4.707-4.759,12.636-4.761t12.319,4.053q4.389,4.053,4.391,10.885a15.319,15.319,0,0,1-2.46,8.461,95.448,95.448,0,0,1-8.479,10.584l-8.495,10.195.07.178h21.062Z" fill="#fff"/>
      </g>
    </g>
    <g id="Group_319" data-name="Group 319" transform="translate(-206.066 3876.161)">
      <g id="Group_312" data-name="Group 312">
        <path id="Path_4299" data-name="Path 4299" d="M1118.357,2703.773l.159,1.609a4.164,4.164,0,0,1,1.524-1.354,4.563,4.563,0,0,1,2.146-.482,3.79,3.79,0,0,1,2.1.567,3.429,3.429,0,0,1,1.319,1.7,4.58,4.58,0,0,1,1.535-1.66,4.01,4.01,0,0,1,2.216-.607,3.662,3.662,0,0,1,2.954,1.287,5.858,5.858,0,0,1,1.089,3.867v7.33h-2.232v-7.352a4.077,4.077,0,0,0-.622-2.564,2.275,2.275,0,0,0-1.859-.756,2.37,2.37,0,0,0-1.852.794,3.448,3.448,0,0,0-.832,2v7.874h-2.243v-7.352a4.021,4.021,0,0,0-.64-2.52,2.221,2.221,0,0,0-1.841-.8,3.07,3.07,0,0,0-1.677.42,2.714,2.714,0,0,0-1.007,1.178v9.074h-2.231v-12.257Z" fill="#fff"/>
      </g>
      <g id="Group_313" data-name="Group 313">
        <path id="Path_4300" data-name="Path 4300" d="M1139.053,2700.636h-2.231v-2.276h2.231Zm0,15.394h-2.231v-12.257h2.231Z" fill="#fff"/>
      </g>
      <g id="Group_314" data-name="Group 314">
        <path id="Path_4301" data-name="Path 4301" d="M1144.479,2703.773l.159,1.825a4.443,4.443,0,0,1,1.535-1.514,4.1,4.1,0,0,1,2.1-.538,4.007,4.007,0,0,1,3.07,1.162,5.108,5.108,0,0,1,1.087,3.586v7.736H1150.2v-7.691a3.312,3.312,0,0,0-.64-2.3,2.56,2.56,0,0,0-1.954-.682,3.446,3.446,0,0,0-1.75.415,2.987,2.987,0,0,0-1.138,1.16v9.1h-2.232v-12.257Z" fill="#fff"/>
      </g>
      <g id="Group_315" data-name="Group 315">
        <path id="Path_4302" data-name="Path 4302" d="M1163.453,2714.216a4.153,4.153,0,0,1-1.484,1.52,4.077,4.077,0,0,1-2.1.533,3.94,3.94,0,0,1-3.126-1.281,5.95,5.95,0,0,1-1.122-3.987v-7.228h2.231v7.25a4.557,4.557,0,0,0,.58,2.7,2.143,2.143,0,0,0,1.8.736,3.66,3.66,0,0,0,1.966-.482,3,3,0,0,0,1.173-1.364v-8.836h2.231v12.257H1163.6Z" fill="#fff"/>
      </g>
      <g id="Group_316" data-name="Group 316">
        <path id="Path_4303" data-name="Path 4303" d="M1171.96,2700.817v2.956h2.323v1.654h-2.323v7.442a1.668,1.668,0,0,0,.357,1.213,1.29,1.29,0,0,0,.946.35,2.092,2.092,0,0,0,.431-.051,2.978,2.978,0,0,0,.4-.107l.306,1.53a1.976,1.976,0,0,1-.736.333,3.7,3.7,0,0,1-.962.132,2.9,2.9,0,0,1-2.165-.823,3.568,3.568,0,0,1-.8-2.577v-7.442h-1.948v-1.654h1.948v-2.956Z" fill="#fff"/>
      </g>
      <g id="Group_317" data-name="Group 317">
        <path id="Path_4304" data-name="Path 4304" d="M1181.747,2716.269a5.184,5.184,0,0,1-4.117-1.689,6.493,6.493,0,0,1-1.479-4.441v-.5a6.35,6.35,0,0,1,1.524-4.367,4.774,4.774,0,0,1,3.721-1.729,4.449,4.449,0,0,1,3.687,1.53,6.3,6.3,0,0,1,1.229,4.066v1.178h-7.839l-.033.058a5.064,5.064,0,0,0,.815,3,2.852,2.852,0,0,0,2.492,1.15,5.616,5.616,0,0,0,1.988-.324,4.419,4.419,0,0,0,1.468-.89l.871,1.451a5.354,5.354,0,0,1-1.732,1.071A6.941,6.941,0,0,1,1181.747,2716.269Zm-.351-10.965a2.429,2.429,0,0,0-1.932.9,4.255,4.255,0,0,0-.933,2.305l.022.058h5.528v-.183a3.57,3.57,0,0,0-.658-2.208A2.371,2.371,0,0,0,1181.4,2705.3Z" fill="#fff"/>
      </g>
      <g id="Group_318" data-name="Group 318">
        <path id="Path_4305" data-name="Path 4305" d="M1195.94,2712.734a1.481,1.481,0,0,0-.56-1.2,5.386,5.386,0,0,0-2.124-.817,8.93,8.93,0,0,1-3.325-1.3,2.628,2.628,0,0,1-1.16-2.242,3.229,3.229,0,0,1,1.274-2.56,5.618,5.618,0,0,1,6.676.067,3.243,3.243,0,0,1,1.236,2.64l-.022.069H1195.8a1.935,1.935,0,0,0-.7-1.441,2.5,2.5,0,0,0-1.761-.643,2.54,2.54,0,0,0-1.762.531,1.661,1.661,0,0,0-.583,1.268,1.346,1.346,0,0,0,.5,1.122,5.588,5.588,0,0,0,2.078.725,8.8,8.8,0,0,1,3.422,1.348,2.718,2.718,0,0,1,1.166,2.276,3.23,3.23,0,0,1-1.319,2.664,5.455,5.455,0,0,1-3.45,1.031,5.382,5.382,0,0,1-3.693-1.191,3.4,3.4,0,0,1-1.28-2.776l.022-.067h2.131a2.055,2.055,0,0,0,.883,1.738,3.407,3.407,0,0,0,1.937.551,3.063,3.063,0,0,0,1.863-.5A1.543,1.543,0,0,0,1195.94,2712.734Z" fill="#fff"/>
      </g>
    </g>
  </g>
</svg>
