<svg xmlns="http://www.w3.org/2000/svg" width="287.831" height="357.348" viewBox="0 0 287.831 357.348">
  <g id="Group_427" data-name="Group 427" transform="matrix(0.966, 0.259, -0.259, 0.966, 968.338, -7286.95)">
    <g id="Group_361" data-name="Group 361" transform="translate(-30.066 4010.492)">
      <g id="Group_328" data-name="Group 328">
        <path id="Path_4311" data-name="Path 4311" d="M1226.376,3389.29c-15.752-28.683-16.828-84.272-60.382-84.272s-44.631,55.589-60.383,84.272a18.766,18.766,0,0,1-9.122,8.422,32.332,32.332,0,0,0,17.181-3.792c6.238-3.365,11.845-7.792,19.133-9.214,8.03-1.567,16.541-.71,24.643-.176,2.8.185,5.73.573,8.54.573s5.736-.388,8.54-.573c8.1-.534,16.613-1.391,24.643.176,7.289,1.422,12.9,5.849,19.133,9.214a32.342,32.342,0,0,0,17.195,3.792A18.774,18.774,0,0,1,1226.376,3389.29Z" fill="#39b54a"/>
        <path id="Path_4312" data-name="Path 4312" d="M1098.01,3398.9c-.508,0-1.033-.009-1.56-.027a1.165,1.165,0,0,1-.424-2.234,17.615,17.615,0,0,0,8.564-7.914c4.338-7.9,7.527-17.795,10.9-28.273,4.365-13.547,8.879-27.554,16.316-38.285,8.543-12.327,19.725-18.319,34.185-18.319s25.641,5.992,34.184,18.319c7.437,10.731,11.951,24.738,16.316,38.285,3.376,10.478,6.565,20.374,10.9,28.273a17.611,17.611,0,0,0,8.563,7.913,1.165,1.165,0,0,1-.423,2.234c-.532.018-1.062.028-1.575.028a32.863,32.863,0,0,1-16.213-3.959c-1.672-.9-3.314-1.887-4.9-2.841-4.494-2.7-8.739-5.247-13.9-6.254a53.239,53.239,0,0,0-10.231-.874c-3.8,0-7.674.271-11.42.533-.9.062-1.8.125-2.691.184-.934.061-1.907.148-2.848.232-1.9.169-3.857.343-5.769.343s-3.873-.174-5.769-.343c-.941-.084-1.913-.171-2.847-.232-.893-.059-1.791-.122-2.692-.184-3.746-.262-7.619-.533-11.419-.533a53.251,53.251,0,0,0-10.232.874c-5.162,1.007-9.407,3.555-13.9,6.254-1.588.953-3.231,1.94-4.9,2.841A32.855,32.855,0,0,1,1098.01,3398.9Zm90.7-16.259a55.559,55.559,0,0,1,10.678.917c5.564,1.086,10.185,3.861,14.654,6.544,1.566.94,3.185,1.912,4.81,2.788a29.878,29.878,0,0,0,12.16,3.566,20.381,20.381,0,0,1-5.662-6.609c-4.445-8.094-7.667-18.094-11.078-28.68-8.712-27.034-17.719-54.988-48.282-54.988s-39.571,27.954-48.283,54.988c-3.411,10.586-6.633,20.586-11.078,28.68a20.4,20.4,0,0,1-5.66,6.608,29.872,29.872,0,0,0,12.144-3.565c1.625-.876,3.244-1.848,4.809-2.788,4.469-2.683,9.091-5.458,14.654-6.544a55.564,55.564,0,0,1,10.679-.917c3.882,0,7.8.274,11.581.539.9.062,1.793.125,2.683.183.96.064,1.947.151,2.9.236,1.845.165,3.753.335,5.562.335s3.717-.17,5.562-.335c.954-.085,1.941-.172,2.9-.236.89-.058,1.784-.121,2.682-.183C1180.917,3382.919,1184.832,3382.645,1188.714,3382.645Z" fill="#231f20"/>
      </g>
      <g id="Group_330" data-name="Group 330">
        <g id="Group_329" data-name="Group 329">
          <path id="Path_4313" data-name="Path 4313" d="M1165.994,3305.018c43.554,0,44.63,55.589,60.382,84.272,6.993,12.734,22.719,11.748,32.242,6.75,12.244-6.427,20-22.671,5.276-54.825-26.766-58.461-52.761-82.209-97.9-82.209s-71.135,23.748-97.9,82.209c-14.721,32.154-6.968,48.4,5.276,54.825,9.523,5,25.249,5.984,32.242-6.75C1121.363,3360.607,1122.439,3305.018,1165.994,3305.018Z" fill="lime"/>
          <path id="Path_4314" data-name="Path 4314" d="M1244.633,3400.661c-8.6,0-15.451-3.839-19.279-10.81-4.445-8.094-7.667-18.094-11.079-28.68-8.711-27.034-17.719-54.988-48.281-54.988s-39.571,27.954-48.282,54.988c-3.412,10.586-6.634,20.586-11.079,28.68-3.828,6.971-10.675,10.81-19.278,10.81h0a31.822,31.822,0,0,1-14.527-3.589c-7.2-3.78-11.818-10.207-13.354-18.587-1.845-10.065.7-22.767,7.561-37.756,27.664-60.423,54.485-82.888,98.96-82.888s71.295,22.465,98.96,82.888c6.862,14.989,9.405,27.691,7.56,37.756-1.536,8.38-6.154,14.807-13.354,18.587A31.823,31.823,0,0,1,1244.633,3400.661Zm-78.639-96.809c14.459,0,25.641,5.992,34.184,18.319,7.437,10.731,11.951,24.738,16.316,38.285,3.376,10.477,6.566,20.374,10.9,28.273,3.4,6.191,9.521,9.6,17.236,9.6a29.876,29.876,0,0,0,13.443-3.322,23.074,23.074,0,0,0,12.145-16.943c1.758-9.585-.728-21.82-7.387-36.365-27.21-59.432-53.456-81.528-96.84-81.528s-69.631,22.1-96.841,81.528c-6.659,14.545-9.144,26.779-7.387,36.365a23.074,23.074,0,0,0,12.145,16.943,29.876,29.876,0,0,0,13.443,3.322c7.714,0,13.835-3.409,17.236-9.6,4.338-7.9,7.527-17.8,10.9-28.273,4.365-13.547,8.879-27.554,16.316-38.285C1140.352,3309.844,1151.534,3303.852,1165.994,3303.852Z" fill="#231f20"/>
        </g>
      </g>
      <g id="Group_345" data-name="Group 345">
        <g id="Group_333" data-name="Group 333">
          <g id="Group_331" data-name="Group 331">
            <path id="Path_4315" data-name="Path 4315" d="M1180.677,3268.675c-7.609-.985-14.172,1.268-14.66,5.033a3.522,3.522,0,0,0,0,.827c.012.115,2.092,20.453,11.251,20.453s16.047-16.8,16.089-16.914a3.466,3.466,0,0,0,.212-.8C1194.059,3273.51,1188.285,3269.66,1180.677,3268.675Z" fill="#fff"/>
            <path id="Path_4316" data-name="Path 4316" d="M1177.27,3296.184c-9.9,0-12.21-19.319-12.441-21.522a4.654,4.654,0,0,1,0-1.108c.488-3.772,5.439-6.307,12.32-6.307a28.719,28.719,0,0,1,3.679.241c8.391,1.087,14.509,5.453,13.928,9.94a4.72,4.72,0,0,1-.281,1.073C1194.409,3278.678,1187.269,3296.184,1177.27,3296.184Zm-.119-26.544c-5.359,0-9.635,1.815-9.947,4.221a2.326,2.326,0,0,0,.005.545c.021.2,2.12,19.385,10.061,19.385,8.241,0,14.912-16,14.977-16.159a2.285,2.285,0,0,0,.138-.511c.344-2.663-4.442-6.3-11.862-7.26A26.52,26.52,0,0,0,1177.151,3269.64Z" fill="#231f20"/>
          </g>
          <g id="Group_332" data-name="Group 332">
            <path id="Path_4317" data-name="Path 4317" d="M1171.623,3275.325a1.785,1.785,0,0,1,.151-.136c.1-.084.253-.213.455-.352s.454-.3.75-.474a10.794,10.794,0,0,1,1.033-.5c.193-.082.4-.162.611-.245s.439-.14.67-.213a14.019,14.019,0,0,1,1.487-.345c.262-.039.531-.067.8-.1a5.83,5.83,0,0,1,.829-.056c.28,0,.564-.012.848-.005s.568.043.853.064.569.059.85.107.557.123.832.185a9.592,9.592,0,0,1,1.575.5,8.9,8.9,0,0,1,1.385.676c.21.126.422.23.61.363l.53.4a9.055,9.055,0,0,1,.878.747c.236.253.434.478.591.668.313.379.471.609.471.609s-.284-.07-.744-.213c-.229-.072-.5-.165-.8-.276a4.392,4.392,0,0,0-.493-.148l-.541-.157-.572-.182c-.2-.058-.41-.1-.622-.151-.426-.1-.853-.243-1.32-.311-.461-.085-.922-.205-1.409-.258-.241-.037-.484-.068-.725-.114s-.491-.047-.737-.073c-.489-.075-.985-.084-1.474-.121s-.975-.023-1.448-.057c-.471.019-.935-.015-1.374.008-.221,0-.435.011-.646.008l-.608.023c-.395,0-.753.036-1.082.04l-.851.042Z" fill="#bbbdbf"/>
          </g>
        </g>
        <g id="Group_335" data-name="Group 335">
          <g id="Group_334" data-name="Group 334">
            <path id="Path_4318" data-name="Path 4318" d="M1211.805,3297.041c5.492-3.076,19.1-3.016,21.383,1.073,2.25,4.029.319,13.077-1.359,15.676-4.005,6.2-17.357,14.171-25.046,5.273C1202.715,3310.406,1206.312,3300.117,1211.805,3297.041Z" fill="#fff"/>
            <path id="Path_4319" data-name="Path 4319" d="M1215.427,3324.23a12.291,12.291,0,0,1-9.549-4.385,1.222,1.222,0,0,1-.178-.273c-4.291-9.133-.556-20.172,5.52-23.575,2.594-1.453,6.867-2.32,11.43-2.32,2.212,0,9.585.278,11.583,3.854,2.506,4.487.54,13.905-1.4,16.908C1229.792,3319.148,1222.273,3324.23,1215.427,3324.23Zm-7.631-5.826a9.822,9.822,0,0,0,7.631,3.433c6.381,0,13.042-5.05,15.4-8.7,1.572-2.435,3.238-11.009,1.32-14.443-.865-1.547-4.768-2.628-9.494-2.628-4.11,0-8.042.772-10.261,2.015C1207.351,3300.906,1204.21,3310.564,1207.8,3318.4Z" fill="#231f20"/>
          </g>
        </g>
        <g id="Group_338" data-name="Group 338">
          <g id="Group_336" data-name="Group 336">
            <path id="Path_4320" data-name="Path 4320" d="M1209.307,3279.707c-6.22-4.545-13.172-5.616-15.527-2.393a3.89,3.89,0,0,0-.421.76c-.048.112-6.007,19.148-.515,24.162s22.771-7.751,22.864-7.831a3.833,3.833,0,0,0,.6-.632C1218.659,3290.55,1215.526,3284.252,1209.307,3279.707Z" fill="#fff"/>
            <path id="Path_4321" data-name="Path 4321" d="M1196.372,3304.6h0a6.209,6.209,0,0,1-4.334-1.479c-6.144-5.609.142-25.331.221-25.516a5.011,5.011,0,0,1,.555-1c1.124-1.538,3.026-2.351,5.5-2.351,3.535,0,7.8,1.635,11.7,4.484,6.856,5.011,10.044,11.923,7.257,15.738a5.023,5.023,0,0,1-.779.831C1216.385,3295.4,1204.044,3304.6,1196.372,3304.6Zm-1.895-26.1c-1.215,3.67-5.09,18.956-.826,22.848a3.919,3.919,0,0,0,2.721.854c6.577,0,18.019-8.316,18.581-8.731a2.585,2.585,0,0,0,.385-.408c1.718-2.352-.578-7.893-6.737-12.394-3.447-2.519-7.293-4.023-10.287-4.023a4.346,4.346,0,0,0-3.568,1.37A2.609,2.609,0,0,0,1194.477,3278.5Z" fill="#231f20"/>
          </g>
          <g id="Group_337" data-name="Group 337">
            <path id="Path_4322" data-name="Path 4322" d="M1197.556,3282.754a4.94,4.94,0,0,1,.751-.208,9.293,9.293,0,0,1,2.034-.174,11.5,11.5,0,0,1,2.867.428c.256.075.518.15.776.249s.523.19.78.309a12.629,12.629,0,0,1,1.522.8,12.231,12.231,0,0,1,1.387,1.021,7.468,7.468,0,0,1,.621.573,10.773,10.773,0,0,1,1.059,1.222c.151.21.3.41.429.624a10.777,10.777,0,0,1,.661,1.211,10.069,10.069,0,0,1,.412,1.083,8.108,8.108,0,0,1,.223.861c.087.489.112.769.112.769s-.212-.2-.54-.548c-.158-.177-.373-.376-.592-.614s-.488-.486-.757-.764c-.284-.267-.578-.56-.905-.847-.158-.149-.326-.294-.5-.44s-.344-.3-.528-.441c-.357-.3-.743-.58-1.133-.865s-.8-.555-1.216-.816-.842-.508-1.27-.74-.859-.448-1.28-.66c-.849-.405-1.671-.764-2.4-1.057s-1.353-.535-1.8-.7Z" fill="#bbbdbf"/>
          </g>
        </g>
        <g id="Group_341" data-name="Group 341">
          <g id="Group_339" data-name="Group 339">
            <path id="Path_4323" data-name="Path 4323" d="M1240.193,3315.651c6.325,4.112,15.437,17.129,12.284,25.561s-19.73,11.946-23.41,10.93-9.979-8.82-12.163-17.161C1214.135,3324.409,1233.867,3311.539,1240.193,3315.651Z" fill="#fff"/>
            <path id="Path_4324" data-name="Path 4324" d="M1230.745,3353.509a7.757,7.757,0,0,1-2-.213c-4.131-1.141-10.711-9.257-13-18.012-.9-3.419.189-7.244,3.134-11.06,4.493-5.82,12.667-10.555,18.223-10.555a6.763,6.763,0,0,1,3.742.979c6.478,4.211,16.241,17.655,12.753,26.983C1250.478,3349.976,1235.985,3353.509,1230.745,3353.509Zm6.358-37.447c-4.824,0-12.3,4.407-16.328,9.624-1.727,2.237-3.6,5.612-2.714,8.992,2.159,8.244,8.263,15.465,11.325,16.311a5.37,5.37,0,0,0,1.359.127c5.685,0,18.114-3.644,20.611-10.323,2.909-7.78-5.926-20.31-11.815-24.139A4.442,4.442,0,0,0,1237.1,3316.062Z" fill="#231f20"/>
          </g>
          <g id="Group_340" data-name="Group 340">
            <path id="Path_4325" data-name="Path 4325" d="M1229.745,3329.277c-.341-2.768,1.728-7.638,2.218-4.348s.461,5.442,2.444,7.607,3.9,3.676,6.24,2.648,5.09-1.8,2.475.352-3.961,1.348-5.134,4.09-3.717,4.9-3.111,1.444,1.328-4.737-.734-6.839-3.193-2.9-5.374-1.411-2.88.045-.952-1.749S1229.97,3331.1,1229.745,3329.277Z" fill="#bbbdbf"/>
          </g>
        </g>
        <g id="Group_344" data-name="Group 344">
          <g id="Group_342" data-name="Group 342">
            <path id="Path_4326" data-name="Path 4326" d="M1262.427,3363.144c-1.063-6.6-5.347-20.217-18.337-14.212a46.989,46.989,0,0,1-11.972,3.568c-9.47,1.631-5.669,16.171-3.822,22.129,1.111,3.587,2.674,7.616,5.818,9.905,3.209,2.334,7.177.835,10.893.643C1263.017,3384.247,1263.625,3370.58,1262.427,3363.144Z" fill="#fff"/>
            <path id="Path_4327" data-name="Path 4327" d="M1238.555,3387.024h0a8.323,8.323,0,0,1-5.144-1.523c-3.411-2.483-5.077-6.71-6.257-10.518-2.908-9.383-3.166-16.126-.765-20.043a7.705,7.705,0,0,1,5.527-3.619,45.614,45.614,0,0,0,11.673-3.475,15.648,15.648,0,0,1,6.5-1.6c10.046,0,12.886,12.79,13.518,16.71.638,3.966,1.049,11.439-3.382,16.921-3.2,3.958-8.3,6.144-15.158,6.5-.893.046-1.8.172-2.765.306A27.521,27.521,0,0,1,1238.555,3387.024Zm11.536-38.388a13.292,13.292,0,0,0-5.5,1.382,47.873,47.873,0,0,1-12.271,3.661,5.344,5.344,0,0,0-3.893,2.511c-1.392,2.272-2.347,7.253,1.01,18.085,1.064,3.432,2.535,7.22,5.381,9.291a6.048,6.048,0,0,0,3.735,1.065h0a25.382,25.382,0,0,0,3.42-.323c.97-.135,1.974-.274,2.971-.326,6.151-.317,10.667-2.206,13.42-5.612,3.847-4.76,3.455-11.464,2.88-15.036C1260.691,3359.886,1258.245,3348.636,1250.091,3348.636Z" fill="#231f20"/>
          </g>
          <g id="Group_343" data-name="Group 343">
            <path id="Path_4328" data-name="Path 4328" d="M1244.154,3363.33c.148-1.2,1.828-8.635,2.057-6.45s-.5,4.466,1.537,3.374,4.06-2.032,1.823,1.206-4.055,7.22-.026,9.993,5.824,6.8,1.92,4.389-3.079-5.4-4.774-2.353-5.316,5.331-4.2,2.289,4.885-9.955,1.132-9.33-7.71,1.223-5.087-.37S1244.028,3364.34,1244.154,3363.33Z" fill="#bbbdbf"/>
          </g>
        </g>
      </g>
      <g id="Group_360" data-name="Group 360">
        <g id="Group_348" data-name="Group 348">
          <g id="Group_346" data-name="Group 346">
            <path id="Path_4329" data-name="Path 4329" d="M1151.3,3268.675c7.609-.985,14.172,1.268,14.659,5.033a3.522,3.522,0,0,1,0,.827c-.013.115-2.092,20.453-11.252,20.453s-16.047-16.8-16.088-16.914a3.519,3.519,0,0,1-.213-.8C1137.921,3273.51,1143.694,3269.66,1151.3,3268.675Z" fill="#fff"/>
            <path id="Path_4330" data-name="Path 4330" d="M1154.709,3296.184c-10,0-17.138-17.506-17.206-17.683a4.608,4.608,0,0,1-.281-1.073c-.581-4.487,5.537-8.853,13.927-9.94a28.746,28.746,0,0,1,3.68-.241c6.88,0,11.832,2.535,12.32,6.307a4.663,4.663,0,0,1,0,1.108C1166.919,3276.867,1164.6,3296.184,1154.709,3296.184Zm.12-26.544a26.508,26.508,0,0,0-3.372.221c-7.42.961-12.207,4.6-11.862,7.26a2.366,2.366,0,0,0,.143.526c.06.146,6.731,16.144,14.971,16.144,7.933,0,10.041-19.183,10.061-19.377a2.347,2.347,0,0,0,.006-.553C1164.464,3271.455,1160.188,3269.64,1154.829,3269.64Z" fill="#231f20"/>
          </g>
          <g id="Group_347" data-name="Group 347">
            <path id="Path_4331" data-name="Path 4331" d="M1160.356,3275.325l-.764-.037-.851-.042c-.328,0-.686-.038-1.082-.04l-.607-.023c-.211,0-.426-.005-.646-.008-.439-.023-.9.011-1.374-.008-.474.034-.959.015-1.448.057s-.985.046-1.475.121c-.245.026-.494.037-.737.073s-.484.077-.724.114c-.487.053-.949.173-1.41.258-.467.068-.894.214-1.32.311-.211.052-.423.093-.621.151l-.572.182-.541.157a4.272,4.272,0,0,0-.493.148c-.3.111-.573.2-.8.276-.459.143-.743.213-.743.213s.157-.23.471-.609c.157-.19.355-.415.591-.668a9.154,9.154,0,0,1,.877-.747l.531-.4c.187-.133.4-.237.61-.363a8.865,8.865,0,0,1,1.385-.676,9.56,9.56,0,0,1,1.575-.5c.274-.062.551-.132.832-.185s.566-.072.85-.107.569-.065.853-.064.567,0,.847.005a5.844,5.844,0,0,1,.83.056c.272.029.541.057.8.1a14,14,0,0,1,1.486.345c.232.073.456.14.671.213s.417.163.611.245a10.657,10.657,0,0,1,1.032.5c.3.176.551.326.751.474s.352.268.455.352A1.855,1.855,0,0,1,1160.356,3275.325Z" fill="#bbbdbf"/>
          </g>
        </g>
        <g id="Group_350" data-name="Group 350">
          <g id="Group_349" data-name="Group 349">
            <path id="Path_4332" data-name="Path 4332" d="M1120.175,3297.041c-5.493-3.076-19.1-3.016-21.383,1.073-2.251,4.029-.319,13.077,1.359,15.676,4.005,6.2,17.356,14.171,25.046,5.273C1129.264,3310.406,1125.667,3300.117,1120.175,3297.041Z" fill="#fff"/>
            <path id="Path_4333" data-name="Path 4333" d="M1116.554,3324.23h0c-6.846,0-14.365-5.083-17.406-9.791-1.94-3-3.906-12.421-1.4-16.908,2-3.576,9.37-3.854,11.583-3.854,4.563,0,8.836.867,11.429,2.32,6.077,3.4,9.812,14.442,5.521,23.575a1.261,1.261,0,0,1-.178.273A12.291,12.291,0,0,1,1116.554,3324.23Zm-7.224-28.16c-4.726,0-8.63,1.081-9.494,2.628-1.918,3.434-.253,12.008,1.32,14.443,2.354,3.645,9.015,8.695,15.4,8.7h0a9.82,9.82,0,0,0,7.629-3.433c3.587-7.84.446-17.5-4.593-20.319C1117.371,3296.842,1113.44,3296.07,1109.33,3296.07Z" fill="#231f20"/>
          </g>
        </g>
        <g id="Group_353" data-name="Group 353">
          <g id="Group_351" data-name="Group 351">
            <path id="Path_4334" data-name="Path 4334" d="M1122.673,3279.707c6.22-4.545,13.171-5.616,15.526-2.393a3.844,3.844,0,0,1,.422.76c.048.112,6.007,19.148.514,24.162s-22.771-7.751-22.863-7.831a3.792,3.792,0,0,1-.6-.632C1113.32,3290.55,1116.453,3284.252,1122.673,3279.707Z" fill="#fff"/>
            <path id="Path_4335" data-name="Path 4335" d="M1135.608,3304.6c-7.672,0-20.013-9.2-20.12-9.29a5.063,5.063,0,0,1-.779-.83c-2.787-3.815.4-10.727,7.258-15.738,3.9-2.849,8.164-4.484,11.7-4.484,2.474,0,4.376.813,5.5,2.351a5,5,0,0,1,.555.994c.08.185,6.382,19.894.222,25.518A6.212,6.212,0,0,1,1135.608,3304.6Zm-18.582-11.124c.56.413,12,8.731,18.582,8.731a3.919,3.919,0,0,0,2.721-.854c4.266-3.894.389-19.179-.826-22.848a2.559,2.559,0,0,0-.27-.484,4.344,4.344,0,0,0-3.567-1.37c-2.994,0-6.84,1.5-10.287,4.023-6.159,4.5-8.456,10.042-6.737,12.394A2.533,2.533,0,0,0,1117.026,3293.475Z" fill="#231f20"/>
          </g>
          <g id="Group_352" data-name="Group 352">
            <path id="Path_4336" data-name="Path 4336" d="M1134.423,3282.754l-.716.269c-.448.168-1.075.408-1.8.7s-1.548.652-2.4,1.057c-.421.212-.854.423-1.28.66s-.853.481-1.27.74-.824.534-1.217.816-.775.567-1.132.865c-.185.143-.357.294-.528.441s-.341.291-.5.44c-.328.287-.621.58-.906.847-.269.278-.536.527-.756.764s-.435.437-.593.614c-.327.35-.539.548-.539.548s.024-.28.112-.769a8.32,8.32,0,0,1,.222-.861,10.5,10.5,0,0,1,.412-1.083,10.936,10.936,0,0,1,.661-1.211c.125-.214.278-.414.43-.624a7.115,7.115,0,0,1,.5-.62,7.321,7.321,0,0,1,.561-.6,7.626,7.626,0,0,1,.621-.573,12.243,12.243,0,0,1,1.388-1.021,12.548,12.548,0,0,1,1.522-.8c.256-.119.518-.218.779-.309s.52-.174.777-.249a11.488,11.488,0,0,1,2.867-.428,9.284,9.284,0,0,1,2.033.174A4.895,4.895,0,0,1,1134.423,3282.754Z" fill="#bbbdbf"/>
          </g>
        </g>
        <g id="Group_356" data-name="Group 356">
          <g id="Group_354" data-name="Group 354">
            <path id="Path_4337" data-name="Path 4337" d="M1091.787,3315.651c-6.325,4.112-15.437,17.129-12.285,25.561s19.73,11.946,23.41,10.93,9.98-8.82,12.164-17.161C1117.844,3324.409,1098.112,3311.539,1091.787,3315.651Z" fill="#fff"/>
            <path id="Path_4338" data-name="Path 4338" d="M1101.236,3353.509h0c-5.241,0-19.734-3.534-22.853-11.878-3.488-9.328,6.275-22.772,12.753-26.983a6.759,6.759,0,0,1,3.741-.979c5.556,0,13.731,4.735,18.223,10.555,2.946,3.816,4.03,7.641,3.134,11.06-2.292,8.755-8.872,16.871-13,18.012A7.754,7.754,0,0,1,1101.236,3353.509Zm-6.36-37.447a4.436,4.436,0,0,0-2.437.592c-5.889,3.829-14.725,16.359-11.816,24.139,2.5,6.679,14.926,10.323,20.612,10.323h0a5.377,5.377,0,0,0,1.359-.127c3.062-.846,9.166-8.067,11.325-16.311.884-3.38-.988-6.755-2.714-8.992C1107.178,3320.469,1099.7,3316.062,1094.876,3316.062Z" fill="#231f20"/>
          </g>
          <g id="Group_355" data-name="Group 355">
            <path id="Path_4339" data-name="Path 4339" d="M1102.234,3329.277c.342-2.768-1.727-7.638-2.217-4.348s-.462,5.442-2.444,7.607-3.9,3.676-6.24,2.648-5.091-1.8-2.476.352,3.962,1.348,5.135,4.09,3.717,4.9,3.11,1.444-1.327-4.737.735-6.839,3.193-2.9,5.374-1.411,2.879.045.951-1.749S1102.01,3331.1,1102.234,3329.277Z" fill="#bbbdbf"/>
          </g>
        </g>
        <g id="Group_359" data-name="Group 359">
          <g id="Group_357" data-name="Group 357">
            <path id="Path_4340" data-name="Path 4340" d="M1069.552,3363.144c1.063-6.6,5.348-20.217,18.338-14.212a46.994,46.994,0,0,0,11.971,3.568c9.471,1.631,5.67,16.171,3.823,22.129-1.112,3.587-2.674,7.616-5.819,9.905-3.208,2.334-7.177.835-10.893.643C1068.962,3384.247,1068.354,3370.58,1069.552,3363.144Z" fill="#fff"/>
            <path id="Path_4341" data-name="Path 4341" d="M1093.425,3387.024a27.523,27.523,0,0,1-3.749-.346c-.962-.134-1.872-.26-2.765-.306-6.86-.354-11.96-2.54-15.158-6.5-4.431-5.482-4.021-12.955-3.382-16.921.632-3.92,3.473-16.71,13.517-16.71a15.648,15.648,0,0,1,6.5,1.6,45.608,45.608,0,0,0,11.672,3.475,7.707,7.707,0,0,1,5.528,3.619c2.4,3.917,2.143,10.66-.765,20.043-1.18,3.808-2.846,8.035-6.258,10.518A8.321,8.321,0,0,1,1093.425,3387.024Zm-11.537-38.388c-8.153,0-10.6,11.25-11.154,14.7-.576,3.572-.967,10.276,2.88,15.036,2.753,3.406,7.268,5.295,13.42,5.612,1,.052,2,.191,2.971.326a25.384,25.384,0,0,0,3.42.323,6.05,6.05,0,0,0,3.736-1.065c2.846-2.071,4.317-5.859,5.38-9.291,3.357-10.832,2.4-15.813,1.01-18.085a5.341,5.341,0,0,0-3.893-2.511,47.9,47.9,0,0,1-12.271-3.661A13.292,13.292,0,0,0,1081.888,3348.636Z" fill="#231f20"/>
          </g>
          <g id="Group_358" data-name="Group 358">
            <path id="Path_4342" data-name="Path 4342" d="M1087.826,3363.33c-.149-1.2-1.829-8.635-2.058-6.45s.5,4.466-1.536,3.374-4.06-2.032-1.823,1.206,4.055,7.22.026,9.993-5.825,6.8-1.92,4.389,3.078-5.4,4.774-2.353,5.315,5.331,4.2,2.289-4.885-9.955-1.132-9.33,7.71,1.223,5.086-.37S1087.951,3364.34,1087.826,3363.33Z" fill="#bbbdbf"/>
          </g>
        </g>
      </g>
    </g>
    <g id="Group_421" data-name="Group 421" transform="translate(-30.066 4010.492)">
      <g id="Group_364" data-name="Group 364">
        <g id="Group_362" data-name="Group 362">
          <path id="Path_4343" data-name="Path 4343" d="M1165.994,3523.182c43.554,0,44.63-55.589,60.382-84.272,6.993-12.734,22.719-11.749,32.242-6.75,12.244,6.427,20,22.671,5.276,54.825-26.766,58.461-52.761,82.209-97.9,82.209s-71.135-23.748-97.9-82.209c-14.721-32.154-6.968-48.4,5.276-54.825,9.523-5,25.249-5.984,32.242,6.75C1121.363,3467.593,1122.439,3523.182,1165.994,3523.182Z" fill="lime"/>
        </g>
        <g id="Group_363" data-name="Group 363">
          <path id="Path_4344" data-name="Path 4344" d="M1165.994,3570.39c-44.49,0-71.318-22.47-98.988-82.907-6.865-14.994-9.41-27.7-7.564-37.774,1.538-8.389,6.162-14.824,13.371-18.608a31.853,31.853,0,0,1,14.541-3.593c8.616,0,15.472,3.844,19.306,10.826,4.447,8.1,7.669,18.1,11.081,28.686,8.708,27.023,17.712,54.966,48.253,54.966s39.544-27.943,48.252-54.966c3.412-10.588,6.634-20.589,11.081-28.686,3.834-6.982,10.69-10.826,19.306-10.826a31.852,31.852,0,0,1,14.541,3.593c7.209,3.784,11.833,10.219,13.371,18.608,1.846,10.071-.7,22.78-7.563,37.774C1237.311,3547.92,1210.483,3570.39,1165.994,3570.39Zm-78.64-140.49a29.847,29.847,0,0,0-13.429,3.319,23.048,23.048,0,0,0-12.129,16.922c-1.756,9.579.729,21.807,7.385,36.346,27.2,59.418,53.443,81.51,96.813,81.51s69.608-22.092,96.812-81.51c6.656-14.539,9.141-26.767,7.385-36.346a23.048,23.048,0,0,0-12.129-16.922,29.847,29.847,0,0,0-13.429-3.319c-4.461,0-12.629,1.246-17.208,9.586-4.337,7.9-7.525,17.792-10.9,28.267-4.366,13.549-8.881,27.559-16.32,38.294-8.55,12.336-19.74,18.332-34.21,18.332s-25.661-6-34.211-18.332c-7.439-10.735-11.954-24.745-16.32-38.294-3.375-10.475-6.564-20.371-10.9-28.267C1100.212,3431.564,1092.8,3429.9,1087.354,3429.9Z" fill="#231f20"/>
        </g>
      </g>
      <g id="Group_392" data-name="Group 392">
        <g id="Group_369" data-name="Group 369">
          <g id="Group_366" data-name="Group 366">
            <g id="Group_365" data-name="Group 365">
              <path id="Path_4345" data-name="Path 4345" d="M1205.315,3528.838c-.5-.968-1.564-10.219,2.1-15.438s9.554-6.379,14.331-.812,9.554,17.4,6.888,20.529S1209.212,3536.389,1205.315,3528.838Z" fill="#fff"/>
            </g>
          </g>
          <g id="Group_368" data-name="Group 368">
            <g id="Group_367" data-name="Group 367">
              <path id="Path_4346" data-name="Path 4346" d="M1220.438,3536.335c-6.091,0-13.542-1.825-16.186-6.948-.633-1.226-1.792-11.01,2.186-16.675,2.262-3.219,5.251-4.993,8.417-4.993,2.808,0,5.506,1.415,7.8,4.09,4.415,5.145,10.36,18.009,6.891,22.084C1227.618,3536.159,1222.087,3536.335,1220.438,3536.335Zm-14.048-8.023c2.166,4.155,8.917,5.63,14.048,5.63,3.89,0,6.61-.8,7.288-1.6,1.968-2.311-2.022-13.305-6.885-18.974-1.828-2.129-3.9-3.255-5.986-3.255-2.364,0-4.658,1.412-6.458,3.976C1205.031,3518.88,1206.038,3527.369,1206.39,3528.312Z" fill="#231f20"/>
            </g>
          </g>
        </g>
        <g id="Group_374" data-name="Group 374">
          <g id="Group_371" data-name="Group 371">
            <g id="Group_370" data-name="Group 370">
              <path id="Path_4347" data-name="Path 4347" d="M1204.019,3550.451c-6.191,2.794-14.881,3.623-13.676-.892,2.345-8.784.17-20.051,4.161-22.083,8.132-4.142,12.018,6.21,18.261,11.962C1216.131,3542.54,1210.211,3547.656,1204.019,3550.451Z" fill="#fff"/>
            </g>
          </g>
          <g id="Group_373" data-name="Group 373">
            <g id="Group_372" data-name="Group 372">
              <path id="Path_4348" data-name="Path 4348" d="M1194.444,3553.943c-2.318,0-3.926-.563-4.779-1.674a3.325,3.325,0,0,1-.478-3.018,54.507,54.507,0,0,0,1.3-11.057c.282-5.741.505-10.275,3.469-11.784a9.132,9.132,0,0,1,4.14-1.084c4.5,0,7.573,3.863,10.83,7.954a47.11,47.11,0,0,0,4.645,5.278,3.913,3.913,0,0,1,1.308,3.63c-.6,3.719-5.964,7.363-10.373,9.353A26.472,26.472,0,0,1,1194.444,3553.943Zm3.657-26.224a6.688,6.688,0,0,0-3.054.823c-1.728.88-1.94,5.2-2.165,9.769a56.33,56.33,0,0,1-1.382,11.557c-.171.639.005.868.063.943.133.174.734.739,2.881.739a24.311,24.311,0,0,0,9.083-2.19c4.78-2.158,8.647-5.405,8.994-7.554a1.543,1.543,0,0,0-.567-1.488,48.781,48.781,0,0,1-4.894-5.548C1204.172,3531.144,1201.444,3527.719,1198.1,3527.719Z" fill="#231f20"/>
            </g>
          </g>
        </g>
        <g id="Group_379" data-name="Group 379">
          <g id="Group_376" data-name="Group 376">
            <g id="Group_375" data-name="Group 375">
              <path id="Path_4349" data-name="Path 4349" d="M1178.532,3557.556c-6.522.787-14.851-1.067-12.523-5.017,4.53-7.685,3.98-18.943,9.771-19.848s7.759,10.595,13.848,17C1192.758,3552.982,1185.054,3556.769,1178.532,3557.556Z" fill="#fff"/>
            </g>
          </g>
          <g id="Group_378" data-name="Group 378">
            <g id="Group_377" data-name="Group 377">
              <path id="Path_4350" data-name="Path 4350" d="M1175.49,3558.93c-4.178,0-9.17-.925-10.654-3.521a3.354,3.354,0,0,1,.143-3.477,39.974,39.974,0,0,0,3.588-9.693c1.427-5.176,2.776-10.065,7.028-10.73a5.332,5.332,0,0,1,.82-.065c3.844,0,5.992,4.06,8.479,8.761,1.547,2.926,3.3,6.242,5.6,8.661a3.314,3.314,0,0,1,.849,3.525c-1.251,3.479-8.162,5.809-12.669,6.353A26.623,26.623,0,0,1,1175.49,3558.93Zm.925-25.093a2.932,2.932,0,0,0-.45.036c-2.726.426-3.822,4.4-5.091,9a42.414,42.414,0,0,1-3.834,10.272c-.376.637-.207.932-.126,1.074.642,1.123,3.865,2.316,8.576,2.316a24.326,24.326,0,0,0,2.9-.169c5.374-.648,10.084-3.062,10.705-4.787.1-.27.124-.587-.332-1.066-2.527-2.658-4.363-6.128-5.983-9.191C1180.653,3537.307,1178.818,3533.837,1176.415,3533.837Z" fill="#231f20"/>
            </g>
          </g>
        </g>
        <g id="Group_385" data-name="Group 385">
          <g id="Group_382" data-name="Group 382">
            <g id="Group_380" data-name="Group 380">
              <path id="Path_4351" data-name="Path 4351" d="M1235.578,3517.636c6.068-4.353,15.436-18.133,13.336-27.058s-16.743-12.647-20.152-11.571-9.78,9.337-12.486,18.166C1212.847,3508.365,1229.51,3521.989,1235.578,3517.636Z" fill="#fff"/>
            </g>
            <g id="Group_381" data-name="Group 381">
              <path id="Path_4352" data-name="Path 4352" d="M1232.723,3519.663h0c-4.391,0-10.384-3.794-14.249-9.021-3.454-4.671-4.64-9.579-3.341-13.819,2.822-9.209,9.451-17.752,13.27-18.957a6.392,6.392,0,0,1,1.888-.236c5.865,0,17.831,4.353,19.789,12.673,2.3,9.768-7.631,23.878-13.8,28.3A5.952,5.952,0,0,1,1232.723,3519.663Zm-2.433-39.64a4.03,4.03,0,0,0-1.168.125c-2.843.9-9.009,8.588-11.7,17.376-1.445,4.718,1.245,9.353,2.977,11.7,3.394,4.59,8.692,8.052,12.325,8.052h0a3.63,3.63,0,0,0,2.158-.607c5.692-4.084,14.829-17.476,12.868-25.813C1246.1,3483.845,1235.351,3480.023,1230.29,3480.023Z" fill="#231f20"/>
            </g>
          </g>
          <g id="Group_384" data-name="Group 384">
            <g id="Group_383" data-name="Group 383">
              <path id="Path_4353" data-name="Path 4353" d="M1227.356,3503.211c-.552,2.93.885,8.086,1.617,4.6s.9-5.762,2.876-8.054,3.838-3.89,5.862-2.8,4.433,1.9,2.264-.373-3.455-1.427-4.271-4.329-2.921-5.184-2.678-1.529.779,5.014-1.266,7.239-3.136,3.071-4.972,1.494-2.593-.047-1.012,1.851S1227.72,3501.283,1227.356,3503.211Z" fill="#bbbdbf"/>
            </g>
          </g>
        </g>
        <g id="Group_391" data-name="Group 391">
          <g id="Group_388" data-name="Group 388">
            <g id="Group_386" data-name="Group 386">
              <path id="Path_4354" data-name="Path 4354" d="M1260.388,3467.583c-1.541,6.985-6.607,21.4-17.794,15.044a35,35,0,0,0-10.484-3.776c-8.4-1.727-3.688-17.119-1.5-23.427,1.319-3.8,3.083-8.061,6.122-10.484,3.1-2.472,6.547-.884,9.882-.681C1262.781,3445.243,1262.124,3459.711,1260.388,3467.583Z" fill="#fff"/>
            </g>
            <g id="Group_387" data-name="Group 387">
              <path id="Path_4355" data-name="Path 4355" d="M1247.875,3485.4a11.952,11.952,0,0,1-5.872-1.737,33.693,33.693,0,0,0-10.134-3.645,6.4,6.4,0,0,1-4.468-3.206c-2.259-3.974-1.558-11.3,2.083-21.784,1.387-3.994,3.245-8.427,6.506-11.028a7.5,7.5,0,0,1,4.865-1.63,20.923,20.923,0,0,1,3.4.37,24.161,24.161,0,0,0,2.438.32c5.651.345,9.865,2.307,12.526,5.834,4.388,5.815,3.349,14.365,2.339,18.943C1260.647,3471.961,1256.974,3485.4,1247.875,3485.4Zm-7.02-40.637a5.062,5.062,0,0,0-3.373,1.108c-2.784,2.22-4.463,6.272-5.738,9.942-3.309,9.524-4.112,16.562-2.262,19.817a4.053,4.053,0,0,0,2.868,2.045,35.968,35.968,0,0,1,10.835,3.908,9.628,9.628,0,0,0,4.69,1.424c7.5,0,10.766-13.066,11.344-15.685.922-4.177,1.9-11.938-1.912-16.987-2.22-2.942-5.841-4.586-10.761-4.886a26.413,26.413,0,0,1-2.683-.348A18.826,18.826,0,0,0,1240.855,3444.767Z" fill="#231f20"/>
            </g>
          </g>
          <g id="Group_390" data-name="Group 390">
            <g id="Group_389" data-name="Group 389">
              <path id="Path_4356" data-name="Path 4356" d="M1243.921,3467.386c.028,1.269.888,9.141,1.287,6.828s-.06-4.728,1.684-3.572,3.483,2.152,1.751-1.276-3.021-7.644.858-10.579,5.853-7.2,2.119-4.647-3.254,5.721-4.514,2.492-4.325-5.644-3.589-2.424,3.529,10.539.2,9.877-6.846-1.294-4.62.391S1243.9,3466.317,1243.921,3467.386Z" fill="#bbbdbf"/>
            </g>
          </g>
        </g>
      </g>
      <g id="Group_420" data-name="Group 420">
        <g id="Group_397" data-name="Group 397">
          <g id="Group_394" data-name="Group 394">
            <g id="Group_393" data-name="Group 393">
              <path id="Path_4357" data-name="Path 4357" d="M1125.905,3528.838c.5-.968,1.563-10.219-2.1-15.438s-9.554-6.379-14.331-.812-9.554,17.4-6.888,20.529S1122.008,3536.389,1125.905,3528.838Z" fill="#fff"/>
            </g>
          </g>
          <g id="Group_396" data-name="Group 396">
            <g id="Group_395" data-name="Group 395">
              <path id="Path_4358" data-name="Path 4358" d="M1110.783,3536.335h0c-1.65,0-7.181-.176-9.11-2.442-3.47-4.075,2.476-16.939,6.891-22.084,2.3-2.675,4.994-4.09,7.8-4.09,3.166,0,6.155,1.774,8.416,4.993,3.979,5.665,2.82,15.449,2.187,16.675C1124.324,3534.51,1116.874,3536.335,1110.783,3536.335Zm5.582-26.223c-2.089,0-4.159,1.126-5.986,3.255-4.864,5.669-8.853,16.663-6.885,18.974.677.8,3.4,1.6,7.288,1.6h0c5.131,0,11.88-1.475,14.047-5.63.352-.944,1.359-9.433-2.007-14.224C1121.022,3511.524,1118.729,3510.112,1116.365,3510.112Z" fill="#231f20"/>
            </g>
          </g>
        </g>
        <g id="Group_402" data-name="Group 402">
          <g id="Group_399" data-name="Group 399">
            <g id="Group_398" data-name="Group 398">
              <path id="Path_4359" data-name="Path 4359" d="M1127.2,3550.451c6.191,2.794,14.88,3.623,13.675-.892-2.344-8.784-.169-20.051-4.16-22.083-8.132-4.142-12.019,6.21-18.261,11.962C1115.089,3542.54,1121.009,3547.656,1127.2,3550.451Z" fill="#fff"/>
            </g>
          </g>
          <g id="Group_401" data-name="Group 401">
            <g id="Group_400" data-name="Group 400">
              <path id="Path_4360" data-name="Path 4360" d="M1136.777,3553.943h0a26.5,26.5,0,0,1-10.068-2.4c-4.408-1.99-9.77-5.634-10.372-9.353a3.912,3.912,0,0,1,1.308-3.63,47.016,47.016,0,0,0,4.644-5.278c3.258-4.091,6.335-7.954,10.83-7.954a9.14,9.14,0,0,1,4.141,1.084c2.964,1.509,3.186,6.043,3.468,11.784a54.576,54.576,0,0,0,1.3,11.057,3.326,3.326,0,0,1-.477,3.018C1140.7,3553.38,1139.094,3553.943,1136.777,3553.943Zm-3.659-26.224c-3.342,0-6.07,3.425-8.958,7.051a48.782,48.782,0,0,1-4.894,5.548,1.541,1.541,0,0,0-.567,1.488c.347,2.149,4.214,5.4,8.994,7.554a24.326,24.326,0,0,0,9.083,2.19h0c2.146,0,2.747-.565,2.88-.738.058-.076.234-.3.063-.944a56.332,56.332,0,0,1-1.383-11.557c-.224-4.571-.436-8.889-2.164-9.769A6.688,6.688,0,0,0,1133.118,3527.719Z" fill="#231f20"/>
            </g>
          </g>
        </g>
        <g id="Group_407" data-name="Group 407">
          <g id="Group_404" data-name="Group 404">
            <g id="Group_403" data-name="Group 403">
              <path id="Path_4361" data-name="Path 4361" d="M1152.688,3557.556c6.522.787,14.851-1.067,12.522-5.017-4.53-7.685-3.979-18.943-9.77-19.848s-7.759,10.595-13.848,17C1138.462,3552.982,1146.166,3556.769,1152.688,3557.556Z" fill="#fff"/>
            </g>
          </g>
          <g id="Group_406" data-name="Group 406">
            <g id="Group_405" data-name="Group 405">
              <path id="Path_4362" data-name="Path 4362" d="M1155.73,3558.93h0a26.607,26.607,0,0,1-3.185-.186c-4.507-.544-11.418-2.874-12.67-6.353a3.316,3.316,0,0,1,.85-3.525c2.3-2.419,4.054-5.735,5.6-8.661,2.487-4.7,4.635-8.761,8.478-8.761a5.335,5.335,0,0,1,.821.065c4.252.665,5.6,5.554,7.028,10.73a39.974,39.974,0,0,0,3.588,9.693,3.352,3.352,0,0,1,.142,3.477C1164.9,3558,1159.908,3558.93,1155.73,3558.93Zm-.926-25.093c-2.4,0-4.237,3.47-6.362,7.487-1.62,3.062-3.456,6.533-5.983,9.191-.456.479-.429.8-.332,1.066.621,1.725,5.33,4.139,10.705,4.787a24.3,24.3,0,0,0,2.9.169c4.711,0,7.934-1.193,8.576-2.316.081-.141.249-.437-.126-1.074a42.369,42.369,0,0,1-3.834-10.272c-1.269-4.6-2.365-8.576-5.091-9A2.934,2.934,0,0,0,1154.8,3533.837Z" fill="#231f20"/>
            </g>
          </g>
        </g>
        <g id="Group_413" data-name="Group 413">
          <g id="Group_410" data-name="Group 410">
            <g id="Group_408" data-name="Group 408">
              <path id="Path_4363" data-name="Path 4363" d="M1095.642,3517.636c-6.069-4.353-15.436-18.133-13.336-27.058s16.743-12.647,20.152-11.571,9.78,9.337,12.486,18.166C1118.373,3508.365,1101.71,3521.989,1095.642,3517.636Z" fill="#fff"/>
            </g>
            <g id="Group_409" data-name="Group 409">
              <path id="Path_4364" data-name="Path 4364" d="M1098.5,3519.663a5.958,5.958,0,0,1-3.554-1.055c-6.172-4.427-16.1-18.537-13.8-28.3,1.958-8.32,13.923-12.673,19.789-12.673a6.392,6.392,0,0,1,1.888.236c3.819,1.205,10.448,9.748,13.269,18.957,1.3,4.241.114,9.149-3.341,13.82C1108.881,3515.87,1102.889,3519.663,1098.5,3519.663Zm2.432-39.64c-5.061,0-15.811,3.822-17.459,10.828-1.962,8.337,7.176,21.729,12.868,25.813a3.629,3.629,0,0,0,2.159.607c3.632,0,8.93-3.461,12.324-8.051,1.733-2.343,4.423-6.978,2.978-11.7-2.693-8.788-8.859-16.479-11.7-17.376A4.029,4.029,0,0,0,1100.93,3480.023Z" fill="#231f20"/>
            </g>
          </g>
          <g id="Group_412" data-name="Group 412">
            <g id="Group_411" data-name="Group 411">
              <path id="Path_4365" data-name="Path 4365" d="M1103.863,3503.211c.552,2.93-.884,8.086-1.616,4.6s-.9-5.762-2.876-8.054-3.838-3.89-5.862-2.8-4.433,1.9-2.264-.373,3.455-1.427,4.271-4.329,2.921-5.184,2.678-1.529-.779,5.014,1.266,7.239,3.136,3.071,4.971,1.494,2.594-.047,1.013,1.851S1103.5,3501.283,1103.863,3503.211Z" fill="#bbbdbf"/>
            </g>
          </g>
        </g>
        <g id="Group_419" data-name="Group 419">
          <g id="Group_416" data-name="Group 416">
            <g id="Group_414" data-name="Group 414">
              <path id="Path_4366" data-name="Path 4366" d="M1070.832,3467.583c1.541,6.985,6.607,21.4,17.794,15.044a35,35,0,0,1,10.484-3.776c8.4-1.727,3.687-17.119,1.5-23.427-1.319-3.8-3.084-8.061-6.122-10.484-3.1-2.472-6.547-.884-9.883-.681C1068.438,3445.243,1069.1,3459.711,1070.832,3467.583Z" fill="#fff"/>
            </g>
            <g id="Group_415" data-name="Group 415">
              <path id="Path_4367" data-name="Path 4367" d="M1083.345,3485.4h0c-9.1,0-12.772-13.443-13.68-17.563-1.01-4.578-2.049-13.128,2.339-18.943,2.66-3.527,6.875-5.489,12.526-5.834a24.161,24.161,0,0,0,2.438-.32,20.92,20.92,0,0,1,3.4-.37,7.5,7.5,0,0,1,4.865,1.63c3.261,2.6,5.119,7.034,6.506,11.028,3.641,10.48,4.342,17.81,2.082,21.784a6.4,6.4,0,0,1-4.467,3.206,33.682,33.682,0,0,0-10.134,3.645A11.952,11.952,0,0,1,1083.345,3485.4Zm7.02-40.637a18.823,18.823,0,0,0-3.008.338,26.456,26.456,0,0,1-2.683.348c-4.92.3-8.541,1.944-10.761,4.886-3.811,5.049-2.834,12.81-1.913,16.987.578,2.619,3.84,15.684,11.345,15.685h0a9.629,9.629,0,0,0,4.69-1.424,35.96,35.96,0,0,1,10.834-3.908,4.053,4.053,0,0,0,2.869-2.045c1.85-3.255,1.047-10.293-2.262-19.817-1.275-3.67-2.954-7.722-5.738-9.942A5.062,5.062,0,0,0,1090.365,3444.767Z" fill="#231f20"/>
            </g>
          </g>
          <g id="Group_418" data-name="Group 418">
            <g id="Group_417" data-name="Group 417">
              <path id="Path_4368" data-name="Path 4368" d="M1087.3,3467.386c-.029,1.269-.888,9.141-1.287,6.828s.06-4.728-1.684-3.572-3.483,2.152-1.751-1.276,3.021-7.644-.858-10.579-5.853-7.2-2.119-4.647,3.254,5.721,4.514,2.492,4.324-5.644,3.589-2.424-3.529,10.539-.2,9.877,6.847-1.294,4.621.391S1087.323,3466.317,1087.3,3467.386Z" fill="#bbbdbf"/>
            </g>
          </g>
        </g>
      </g>
    </g>
  </g>
</svg>
