<svg xmlns="http://www.w3.org/2000/svg" width="365.961" height="236.046" viewBox="0 0 365.961 236.046">
  <g id="Group_327" data-name="Group 327" transform="translate(-519.905 -2923.024)">
    <g id="Group_324" data-name="Group 324">
      <g id="Group_322" data-name="Group 322">
        <path id="Path_4306" data-name="Path 4306" d="M680.285,2924.024H646.273c-45.793,0-82.915,34.241-82.915,80.026v128.861s.719,15.5-10.788,15.5-10.787-16.934-10.787-16.934v-95.891s1.635-15.462-9.97-15.462-10.886,16.1-10.886,16.1V3079.1" fill="none" stroke="#fff" stroke-linecap="round" stroke-linejoin="round" stroke-width="2"/>
        <rect id="Rectangle_298" data-name="Rectangle 298" width="18.18" height="36.36" transform="translate(567.176 2957.648) rotate(-44.995)" fill="aqua" stroke="#231f20" stroke-linecap="round" stroke-linejoin="round" stroke-width="2"/>
        <ellipse id="Ellipse_4" data-name="Ellipse 4" cx="80.547" cy="80.534" rx="80.547" ry="80.534" transform="translate(599.738 2924.024)" fill="none" stroke="#fff" stroke-linecap="round" stroke-linejoin="round" stroke-width="2"/>
        <ellipse id="Ellipse_5" data-name="Ellipse 5" cx="70.68" cy="70.669" rx="70.68" ry="70.669" transform="translate(609.605 2933.89)" fill="none" stroke="#fff" stroke-linecap="round" stroke-linejoin="round" stroke-width="2"/>
        <ellipse id="Ellipse_6" data-name="Ellipse 6" cx="59.772" cy="59.763" rx="59.772" ry="59.763" transform="translate(620.513 2944.796)" fill="none" stroke="#fff" stroke-linecap="round" stroke-linejoin="round" stroke-width="2"/>
        <rect id="Rectangle_299" data-name="Rectangle 299" width="196.383" height="196.352" rx="48.435" transform="translate(778.477 3151.282) rotate(-180)" fill="#2cd1d1" stroke="#231f20" stroke-linecap="round" stroke-linejoin="round" stroke-width="2"/>
        <g id="Group_321" data-name="Group 321">
          <ellipse id="Ellipse_7" data-name="Ellipse 7" cx="74.542" cy="74.53" rx="74.542" ry="74.53" transform="translate(581.37 3088.862) rotate(-65.015)" fill="#fbb03b"/>
          <path id="Path_4307" data-name="Path 4307" d="M605.688,3054.991a74.536,74.536,0,0,0,76.831,72.168l-4.676-149.011A74.535,74.535,0,0,0,605.688,3054.991Z" fill="#ff8500"/>
          <ellipse id="Ellipse_8" data-name="Ellipse 8" cx="74.542" cy="74.53" rx="74.542" ry="74.53" transform="translate(581.37 3088.862) rotate(-65.015)" fill="none" stroke="#231f20" stroke-linecap="round" stroke-linejoin="round" stroke-width="2"/>
        </g>
      </g>
      <g id="Group_323" data-name="Group 323">
        <path id="Path_4308" data-name="Path 4308" d="M659.525,3045.246c-4.455-9.863-6.6-24.061,3.017-31.216,7.886-5.867,12.378,2.2,16.943,2.2s8.657-8.07,16.542-2.2c9.618,7.155,7.473,21.353,3.018,31.216-2.584,5.719,5.856,11.15,2.827,27.42-1.078,5.792-5.411,19.133-8.886,19.133-4.912,0-.993-11.7-3.459-20.282a24.918,24.918,0,0,0-6.278-10.47,5.617,5.617,0,0,0-7.928,0,23.938,23.938,0,0,0-6.278,10.47c-2.466,8.578,1.453,20.282-3.459,20.282-3.475,0-7.808-13.341-8.886-19.133C653.669,3056.4,662.109,3050.965,659.525,3045.246Z" fill="#fff"/>
      </g>
    </g>
    <g id="Group_326" data-name="Group 326">
      <g id="Group_325" data-name="Group 325">
        <path id="Path_4309" data-name="Path 4309" d="M830.351,3058.052l-39.188,84.407a10.873,10.873,0,0,0,4.795,14.307,11.351,11.351,0,0,0,15.447-5.118l38.667-83.284Z" fill="none" stroke="#231f20" stroke-linecap="round" stroke-linejoin="round" stroke-width="2"/>
        <path id="Path_4310" data-name="Path 4310" d="M883.408,2996.565a15.362,15.362,0,0,0-6.9-20.045l-51.345-27.532-4.784,10.3a5.908,5.908,0,0,0,2.654,7.709l34.716,18.616a5.907,5.907,0,0,1,2.653,7.709L847.2,3021.772a6.308,6.308,0,0,1-8.68,2.792L804.459,3006.3a5.046,5.046,0,0,0-6.943,2.234l-3.037,6.542a4.725,4.725,0,0,0,2.123,6.167l36.712,19.686a4.727,4.727,0,0,1,2.123,6.168l-5.086,10.953,19.721,10.312Z" fill="lime" stroke="#231f20" stroke-linecap="round" stroke-linejoin="round" stroke-width="2"/>
      </g>
      <line id="Line_25" data-name="Line 25" x1="17.915" y2="38.296" transform="translate(808.684 2969.356)" fill="#fff" stroke="#fff" stroke-linecap="round" stroke-linejoin="round" stroke-width="2"/>
      <line id="Line_26" data-name="Line 26" x2="1.133" y2="0.492" transform="translate(830.16 2961.687)" fill="#fff" stroke="#231f20" stroke-linecap="round" stroke-linejoin="round" stroke-width="2"/>
      <line id="Line_27" data-name="Line 27" x2="1.133" y2="0.492" transform="translate(804.727 3016.465)" fill="#fff" stroke="#231f20" stroke-linecap="round" stroke-linejoin="round" stroke-width="2"/>
    </g>
  </g>
</svg>
