<svg xmlns="http://www.w3.org/2000/svg" width="299.208" height="263.767" viewBox="0 0 299.208 263.767">
  <g id="Group_426" data-name="Group 426" transform="translate(-1035.505 -4085.665)">
    <g id="Group_423" data-name="Group 423">
      <path id="Path_4369" data-name="Path 4369" d="M1333.095,4138.619l-.317-4.555-4.473.914a36.012,36.012,0,0,1-7.182.728,36.493,36.493,0,0,1-36.451-36.451,35.535,35.535,0,0,1,.582-6.323l.736-4.044-4.063-.625a97.374,97.374,0,0,0-14.739-1.1c-19.425,0-35.915,5.14-47.687,14.865-12,9.91-18.337,23.871-18.337,40.373l.027,88.51c0,9.639,7.843,4.482,17.483,4.482a17.5,17.5,0,0,0,17.484-17.484v-8.09a14.877,14.877,0,0,1,29.754,0v24.27a17.484,17.484,0,1,0,34.967,0v-32.36a14.86,14.86,0,0,1,25.483-10.408l6.851,6.958V4142.4C1333.213,4140.991,1333.174,4139.753,1333.095,4138.619Z" fill="aqua"/>
      <path id="Path_4370" data-name="Path 4370" d="M1315.756,4184.247a17.5,17.5,0,0,0-17.484,17.484v32.36a14.877,14.877,0,0,1-29.754,0v-24.27a17.483,17.483,0,1,0-34.967,0v8.09a14.894,14.894,0,0,1-14.877,14.877,14.7,14.7,0,0,1-10.638-4.5,4,4,0,0,0-6.872,2.784v43.471a4,4,0,0,0,4,4h124.049a4,4,0,0,0,4-4v-72.811A17.49,17.49,0,0,0,1315.756,4184.247Z" fill="#fff"/>
      <g id="Group_422" data-name="Group 422">
        <path id="Path_4371" data-name="Path 4371" d="M1267.188,4341.264a18.2,18.2,0,0,1-18.18-18.181v-42.147h36.36v42.147A18.2,18.2,0,0,1,1267.188,4341.264Z" fill="#ffd296"/>
        <path id="Path_4372" data-name="Path 4372" d="M1283.368,4282.936v40.147a16.18,16.18,0,1,1-32.36,0v-40.147h32.36m4-5h-40.36v45.147a20.18,20.18,0,1,0,40.36,0v-45.147Z" fill="#ffd296"/>
      </g>
    </g>
    <path id="Path_4373" data-name="Path 4373" d="M1333.213,4198.281V4142.4c0-1.412-.039-2.65-.118-3.784l-.317-4.555-4.473.914a36.012,36.012,0,0,1-7.182.728,36.493,36.493,0,0,1-36.451-36.451,35.535,35.535,0,0,1,.582-6.323l.736-4.044-4.063-.625a97.374,97.374,0,0,0-14.739-1.1c-19.425,0-35.915,5.14-47.687,14.865-12,9.91-18.337,23.871-18.337,40.373l.026,88.311c-.01.119-.026.236-.026.357v43.471a4,4,0,0,0,4,4h41.844v44.541a20.18,20.18,0,1,0,40.36,0v-44.541h41.845a4,4,0,0,0,4-4v-76.261Z" fill="none" stroke="#231f20" stroke-miterlimit="10" stroke-width="3"/>
    <g id="Group_425" data-name="Group 425">
      <path id="Path_4374" data-name="Path 4374" d="M1165.89,4139.627a55.2,55.2,0,0,0-109.376-.148l-1.27,9.071,7.517-5.234a53.762,53.762,0,0,1,47.15-7.182l1.207.382,1.206-.381a53.7,53.7,0,0,1,47.3,7.305l7.5,5.273Z" fill="#ffc200"/>
      <g id="Group_424" data-name="Group 424">
        <path id="Path_4375" data-name="Path 4375" d="M1111.2,4345.933a12.128,12.128,0,0,1-10.39-7.018l-.31-.681c-8.337-18.356-36.723-81.087-51.957-117.581l-1.156-2.77H1113.2V4252a14.18,14.18,0,1,0,28.361,0v-34.118h33.3l-53.308,121.111A12.232,12.232,0,0,1,1111.2,4345.933Z" fill="#ffd296"/>
        <path id="Path_4376" data-name="Path 4376" d="M1171.8,4219.883l-52.073,118.305a9.2,9.2,0,0,1-17.071-.054c-.35-.782-34.949-76.775-52.262-118.251H1111.2V4252a16.18,16.18,0,0,0,32.361,0v-32.118H1171.8m6.131-4h-38.365V4252a12.18,12.18,0,0,1-24.361,0v-36.118h-70.815l2.313,5.541c15.242,36.514,43.639,99.269,51.98,117.633l.312.688a13.2,13.2,0,0,0,24.4.031l52.063-118.281,2.47-5.612Z" fill="#ffd296"/>
      </g>
    </g>
    <path id="Path_4377" data-name="Path 4377" d="M1154.608,4137.323q-.633-.333-1.281-.656c-.1-.05-.207-.1-.311-.151-11.31-5.564-26.1-8.943-42.3-8.943-27.252,0-50.529,9.542-59.9,23.009a56.429,56.429,0,0,0-5.8,65.956l1.164,1.952h66.418V4252a14.787,14.787,0,1,0,29.574,0V4218.49h33.863l1.165-1.944a56.44,56.44,0,0,0-22.588-79.223Z" fill="#ff8500"/>
    <path id="Path_4378" data-name="Path 4378" d="M1185.235,4187.522a56.364,56.364,0,0,0-18.511-41.774l-.834-6.121a55.2,55.2,0,0,0-109.376-.148l-.768,5.482a34.477,34.477,0,0,0-4.934,5.621,57.083,57.083,0,0,0-6.426,65.3h0l2.313,5.541c15.242,36.514,43.639,99.269,51.98,117.633l.312.688a13.2,13.2,0,0,0,24.4.031l52.063-118.281,2.47-5.612h0A56.13,56.13,0,0,0,1185.235,4187.522Z" fill="none" stroke="#231f20" stroke-miterlimit="10" stroke-width="3"/>
  </g>
</svg>
